<svg xmlns="http://www.w3.org/2000/svg" viewBox="0 0 344.84 103.46" width="344.84" height="103.46"><g id="Layer_2" data-name="Layer 2"><g id="Layer_1-2" data-name="Layer 1"><g class="text"><circle cx="273.42" cy="26.13" r="5.92" style="fill:#41427a"/><polygon points="152.04 39.78 144.39 39.78 144.39 27.5 135.09 27.5 135.09 39.78 127.42 39.78 127.42 47.77 135.09 47.77 135.09 79.41 144.39 79.41 144.39 47.77 152.04 47.77 152.04 39.78" style="fill:#41427a"/><polygon points="261.92 39.78 254.27 39.78 254.27 27.5 244.97 27.5 244.97 39.78 237.3 39.78 237.3 47.77 244.97 47.77 244.97 79.41 254.27 79.41 254.27 47.77 261.92 47.77 261.92 39.78" style="fill:#41427a"/><polygon points="273.81 39.78 268.62 39.78 261.92 39.78 261.92 47.77 268.62 47.77 268.62 79.41 277.99 79.41 277.99 39.78 273.81 39.78" style="fill:#41427a"/><rect x="288.43" y="19.87" width="9.5" height="59.54" style="fill:#41427a"/><polygon points="234.62 39.92 223.8 39.92 215.34 53.35 206.42 39.92 195.25 39.92 209.26 59.86 195.63 79.3 206.23 79.3 214.63 66.38 223.21 79.25 234.34 79.25 220.69 59.86 234.62 39.92" style="fill:#41427a"/><path d="M171.72,39.12a18.33,18.33,0,0,0-10.56,5.23,20.64,20.64,0,0,0-5.61,13.45c-.42,7.1,1.51,13,5.61,17.12A18.28,18.28,0,0,0,170,79.74c8.56,1.94,17.25-1.13,21.44-7.57a12.63,12.63,0,0,0,1.51-2.81c-.1-.09-7.57-3-7.71-3a6.82,6.82,0,0,0-.86,1.14c-2,3.12-5.16,4.71-9.28,4.71-5.32,0-9.15-2.6-10.32-7-.15-.59-.32-1.31-.37-1.57l-.07-.47h30.13l-.08-3.7a24.4,24.4,0,0,0-.38-5.12A19,19,0,0,0,188.59,44a17.14,17.14,0,0,0-10.09-4.9A28.48,28.48,0,0,0,171.72,39.12ZM177.64,47a11.2,11.2,0,0,1,2.31.83,8.29,8.29,0,0,1,3.55,3.36,13.47,13.47,0,0,1,1.36,4.43l.1,1H164.6v-.41a14.71,14.71,0,0,1,.89-3.46,9.59,9.59,0,0,1,6.2-5.54,9,9,0,0,1,3.17-.37A14.57,14.57,0,0,1,177.64,47Z" style="fill:#41427a"/><path d="M322.11,39.12a18.33,18.33,0,0,0-10.56,5.23,20.64,20.64,0,0,0-5.61,13.45c-.42,7.1,1.51,13,5.61,17.12a18.28,18.28,0,0,0,8.82,4.82c8.56,1.94,17.25-1.13,21.44-7.57a12.63,12.63,0,0,0,1.51-2.81c-.1-.09-7.57-3-7.71-3a6.82,6.82,0,0,0-.86,1.14c-2,3.12-5.16,4.71-9.28,4.71-5.32,0-9.15-2.6-10.32-7-.15-.59-.32-1.31-.37-1.57l-.07-.47h30.13l-.08-3.7a24.4,24.4,0,0,0-.38-5.12A19,19,0,0,0,339,44a17.14,17.14,0,0,0-10.09-4.9A28.48,28.48,0,0,0,322.11,39.12ZM328,47a11.2,11.2,0,0,1,2.31.83,8.29,8.29,0,0,1,3.55,3.36,13.47,13.47,0,0,1,1.36,4.43l.1,1H315v-.41a14.71,14.71,0,0,1,.89-3.46,9.59,9.59,0,0,1,6.2-5.54,9,9,0,0,1,3.17-.37A14.57,14.57,0,0,1,328,47Z" style="fill:#41427a"/></g><polygon points="29.5 103.46 44.36 88.54 14.63 88.54 29.5 103.46" style="fill:#40427b"/><rect x="14.63" y="73.74" width="14.94" height="14.81" style="fill:#c9caff"/><polygon points="29.57 73.73 29.57 88.54 44.53 73.73 29.57 73.73" style="fill:#5d5e96"/><polyline points="14.63 73.73 0 73.97 14.63 88.54" style="fill:#5d5e96"/><polygon points="29.66 44.32 0 73.97 29.57 73.73 29.66 44.32" style="fill:#40427a"/><polygon points="29.57 88.54 44.53 73.73 59.15 73.81 44.36 88.54 29.57 88.54" style="fill:#c9caff"/><polygon points="44.4 0 29.53 14.92 59.26 14.92 44.4 0" style="fill:#40427b"/><rect x="44.32" y="14.92" width="14.94" height="14.81" transform="translate(103.59 44.64) rotate(-180)" style="fill:#c9caff"/><polygon points="44.32 29.73 44.32 14.92 29.37 29.73 44.32 29.73" style="fill:#bfc0f8"/><polyline points="59.26 29.73 73.9 29.49 59.26 14.92" style="fill:#5d5e96"/><polygon points="44.24 59.14 73.9 29.49 44.32 29.73 44.24 59.14" style="fill:#40427a"/><polygon points="44.24 59.14 14.75 29.65 44.32 29.73 44.24 59.14" style="fill:#5d5e96"/><polygon points="44.32 14.92 29.37 29.73 14.75 29.65 29.53 14.92 44.32 14.92" style="fill:#c9caff"/><polygon points="44.33 58.99 59.24 73.85 59.24 44.12 44.33 58.99" style="fill:#40427b"/><rect x="59.18" y="44.19" width="14.94" height="14.81" transform="translate(118.24 -15.06) rotate(90)" style="fill:#c9caff"/><polygon points="74.05 59.06 59.24 59.06 74.05 74.01 74.05 59.06" style="fill:#5d5e96"/><polyline points="74.05 44.12 73.81 29.49 59.24 44.12" style="fill:#5d5e96"/><polygon points="103.47 59.14 73.81 29.49 74.05 59.06 103.47 59.14" style="fill:#40427a"/><polygon points="103.47 59.14 73.98 88.64 74.05 59.06 103.47 59.14" style="fill:#bfc0f8"/><polygon points="59.24 59.06 74.05 74.01 73.98 88.64 59.24 73.85 59.24 59.06" style="fill:#c9caff"/><polygon points="29.66 44.32 59.15 73.81 29.57 73.73 29.66 44.32" style="fill:#bfc0f8"/></g></g></svg>