<svg class="sharedStyles-module__svg___3Ge5G nav-module__logo--svg___i1sLo" viewBox="0 0 200 52" xmlns="http://www.w3.org/2000/svg"><path d="M104.453512,51.1794183 C95.1783445,51.1794183 94.6025056,45.7239374 96.3161521,39.5239374 L103.807875,39.5239374 C103.079016,42.9463087 102.614586,45.8223714 106.731812,45.8223714 C109.263356,45.8223714 110.850828,44.187472 111.368054,41.7543624 C112.738076,35.3073826 97.7438926,34.9114094 100.012796,24.2456376 C101.2034,18.6416107 104.832036,14.1776286 113.958658,14.1776286 C121.250828,14.1776286 124.17566,17.4501119 122.086622,24.9422819 L114.794452,24.9422819 C115.364474,22.2621924 115.498255,19.5342282 112.473199,19.5342282 C110.042774,19.5342282 108.319732,20.8747204 107.792662,23.3525727 C106.34613,30.1472036 121.551499,29.5521253 119.156421,40.8134228 C117.183266,50.0894855 110.156868,51.1794183 104.453512,51.1794183 Z M148.243087,50.584519 L155.860984,14.7733333 L175.404609,14.7733333 L174.233244,20.2793736 L162.18,20.2793736 L160.302148,29.1080089 L171.412215,29.1080089 L170.241298,34.6136018 L159.128993,34.6136018 L156.905727,45.0802685 L169.355839,45.0802685 L168.185369,50.584519 L148.243087,50.584519 Z M140.956197,29.1077852 L144.006309,14.7726622 L151.496242,14.7726622 L143.877897,50.5869799 L136.391544,50.5869799 L139.788412,34.6138255 L131.205861,34.6138255 L127.808993,50.5869799 L120.317718,50.5869799 L127.933378,14.7726622 L135.425101,14.7726622 L132.376779,29.1077852 L140.956197,29.1077852 Z M85.0852349,24.9424161 L72.5286353,50.5871588 L64.9769575,50.5871588 L82.5134228,14.7732886 L92.3850112,14.7732886 L94.4914989,50.5871588 L86.5988814,50.5871588 L85.0852349,24.9424161 Z M190.869038,14.7703803 C200.68962,14.7703803 201.13481,21.3184787 198.760313,32.4795526 C197.588949,37.9882774 195.752707,50.584698 182.953602,50.584698 L170.753602,50.584698 C173.291857,38.646443 175.830112,26.7072931 178.369262,14.7703803 L190.869038,14.7703803 Z M191.129441,32.6786577 C192.529888,26.0817897 193.767025,20.2791051 188.558076,20.2791051 L184.68783,20.2791051 C182.93123,28.5453244 181.172394,36.8115436 179.413557,45.0804474 L183.034586,45.0804474 C187.598792,45.0804474 189.218479,41.6562864 191.129441,32.6786577 Z M63.1934228,50.5871141 L55.7052796,50.5871141 L59.1012528,34.6148546 L50.5191499,34.6148546 L47.1227293,50.5871141 L39.6305593,50.5871141 L47.2493512,14.7736913 L54.7379418,14.7736913 L51.6896197,29.1079195 L60.27217,29.1079195 L63.3195973,14.7736913 L70.8081879,14.7736913 L63.1934228,50.5871141 Z M24.7280089,29.1077852 L26.604519,20.2791499 L18.0259955,20.2791499 L16.145906,29.1077852 L24.7280089,29.1077852 Z M41.5834899,20.2791499 L34.0957942,20.2791499 L32.2188367,29.1077852 L39.7065324,29.1077852 L38.5351678,34.6147204 L31.0483669,34.6147204 L27.6488143,50.5869799 L20.1606711,50.5869799 L23.5566443,34.6147204 L14.9758837,34.6147204 L11.5790157,50.5869799 L4.08997763,50.5869799 L7.48639821,34.6147204 L4.4742729e-05,34.6147204 L1.17051454,29.1077852 L8.65686801,29.1077852 L10.5333781,20.2791499 L3.04702461,20.2791499 L4.21794183,14.773557 L11.7047427,14.773557 L14.7530649,0.44738255 L22.2412081,0.44738255 L19.1960179,14.773557 L27.7781208,14.773557 L30.8242058,0.44738255 L38.3136913,0.44738255 L35.2676063,14.773557 L42.7548546,14.773557 L41.5834899,20.2791499 Z"></path></svg>