<svg xmlns="http://www.w3.org/2000/svg" viewBox="0 0 260.16 39.29" width="260.16" height="39.29"><defs><style>.cls-1{fill:#4e4f87;}</style></defs><g id="Layer_2" data-name="Layer 2"><g id="Layer_3" data-name="Layer 3"><path class="cls-1" d="M96.07,38.43h-7v-.66c0-4.9,0-9.8,0-14.69a7.62,7.62,0,0,0-.33-2.23A3.87,3.87,0,0,0,85.11,18c-3.37-.31-5.6,1.73-5.61,5.14,0,4.84,0,9.68,0,14.52v.73h-7V12.34h6.71v3.08a9.13,9.13,0,0,1,8-3.85c3.23,0,5.88,1.26,7.5,4.29.38-.47.71-.92,1.08-1.34,2.25-2.5,5.14-3.19,8.35-2.91a8.69,8.69,0,0,1,6.58,3.55,9.9,9.9,0,0,1,1.79,5.93c0,5.65,0,11.31,0,17a2.94,2.94,0,0,1,0,.37h-6.84v-.65c0-4.94,0-9.88,0-14.81a7.54,7.54,0,0,0-.26-2A3.94,3.94,0,0,0,101.53,18c-3.17-.2-5.37,1.69-5.42,4.86-.08,4.94,0,9.87,0,14.81Z"/><path class="cls-1" d="M164.08,20.6l-2.73,8.12c-1,3.09-2.1,6.19-3.13,9.29a.55.55,0,0,1-.63.46q-3.14,0-6.25,0c-.33,0-.5-.06-.61-.41q-4-12.52-8-25c-.07-.21-.11-.43-.18-.68l.5,0c2.12,0,4.24,0,6.37,0,.42,0,.58.14.69.53,1.49,5.23,3,10.46,4.52,15.68,0,.16.1.32.18.59.53-1.55,1-3,1.52-4.43q2-5.93,4-11.86a.64.64,0,0,1,.73-.51c2.08,0,4.17,0,6.25,0a.76.76,0,0,1,.88.62q2.58,7.8,5.2,15.58a1.22,1.22,0,0,0,.28.5c.07-.2.13-.4.19-.6,1.47-5.13,3-10.27,4.41-15.41a.79.79,0,0,1,.92-.7c1.88,0,3.75,0,5.63,0h.68l-1.29,4.14q-3.36,10.71-6.7,21.41a.72.72,0,0,1-.86.62c-1.91,0-3.83,0-5.74,0a.78.78,0,0,1-.92-.63q-2.81-8.3-5.67-16.57Z"/><path class="cls-1" d="M244.58,28.48c-1,1-1.92,2-2.84,3a1,1,0,0,0-.1.59c0,1.89,0,3.78,0,5.67v.67h-7V0h7V22.06l2.28-2.43c2.18-2.34,4.35-4.68,6.54-7a1,1,0,0,1,.61-.31c2.85,0,5.69,0,8.53,0a3,3,0,0,1,.34,0l-10.44,11,10.67,15.11c-.25,0-.41,0-.57,0-2.52,0-5,0-7.56,0a.88.88,0,0,1-.82-.44c-2.12-3.09-4.26-6.16-6.39-9.24Z"/><path class="cls-1" d="M141.17,31a11.21,11.21,0,0,1-5,6.49c-5.46,3.31-14.61,2.35-18.64-4.76A15.13,15.13,0,0,1,119,16a12.34,12.34,0,0,1,10.25-4.44,12.91,12.91,0,0,1,7.45,2.37,11.83,11.83,0,0,1,4.55,7.72,19.26,19.26,0,0,1,.18,5.63H122.79c-.43,1.92,1.56,4.64,4,5.54a7.25,7.25,0,0,0,5,0,5.62,5.62,0,0,0,3.44-3.58Zm-18.34-8.6h11.66A4.92,4.92,0,0,0,133,18.71a6.57,6.57,0,0,0-8.17-.12A5.56,5.56,0,0,0,122.83,22.38Z"/><path class="cls-1" d="M199.13,11.5c7.91,0,13.72,5.92,13.71,13.91a13.45,13.45,0,0,1-13.76,13.86c-7.94,0-13.76-5.93-13.74-13.94S191.21,11.48,199.13,11.5Zm6.77,13.89a26.23,26.23,0,0,0-.69-3.19A6.54,6.54,0,0,0,193.54,21a8.59,8.59,0,0,0-.89,6.52,6.56,6.56,0,0,0,10.44,4C205.08,30,205.72,27.83,205.9,25.39Z"/><path class="cls-1" d="M51.71,21.43l-6.22-1.32c.08-.42.12-.83.23-1.22a9.3,9.3,0,0,1,5.5-6.26,14.33,14.33,0,0,1,11.9.18A8.38,8.38,0,0,1,68,19.88a17.1,17.1,0,0,1,.1,2.15c0,4.35,0,8.7,0,13,0,1.11.14,2.21.23,3.38h-6c-.3,0-.45-.07-.47-.4-.06-.82-.16-1.65-.24-2.52a.64.64,0,0,0-.2.14c-2.1,2.8-5,3.72-8.35,3.51A8.83,8.83,0,0,1,47,36.48,7.52,7.52,0,0,1,49.5,24.36a19.63,19.63,0,0,1,5.23-1.23c1.55-.23,3.11-.44,4.66-.69a1.9,1.9,0,0,0,1.74-2.59A3,3,0,0,0,59.8,18a5.8,5.8,0,0,0-6.91.82A5.29,5.29,0,0,0,51.71,21.43Zm9.63,5.34a5.59,5.59,0,0,0-.6,0c-1.59.25-3.18.46-4.76.76a9,9,0,0,0-2.52.76,2.74,2.74,0,0,0-1.4,3,2.7,2.7,0,0,0,2.2,2.5,7,7,0,0,0,2.19.11,4.7,4.7,0,0,0,4.45-3.66A31.42,31.42,0,0,0,61.34,26.77Z"/><path class="cls-1" d="M26.5,12.33h6.83v3.56a7.66,7.66,0,0,1,4-3.23,11.36,11.36,0,0,1,5.12-.47v7c-1,0-2-.05-2.91,0a5.84,5.84,0,0,0-5.8,5.34,14.39,14.39,0,0,0-.14,2c0,3.75,0,7.49,0,11.24v.72H26.5Z"/><path class="cls-1" d="M222.64,38.43h-7V12.33h6.8V16a16.58,16.58,0,0,1,1.2-1.58,8.21,8.21,0,0,1,6.25-2.35c1.68,0,1.68,0,1.68,1.68v5.35c-1,0-1.91-.05-2.82,0a5.93,5.93,0,0,0-6,5.8c-.06.67-.1,1.35-.1,2,0,3.58,0,7.15,0,10.73Z"/><path class="cls-1" d="M7.37,7.69V.8H23.78V7.64a2,2,0,0,1-.36.05H7.57l-.22,0Z"/><path class="cls-1" d="M7.3,23.78a3.44,3.44,0,0,1,0,.45V38c0,.15,0,.29,0,.47H0V23.8H7.32Z"/><path class="cls-1" d="M7.32,23.8c0-1.91,0-3.82,0-5.74V17H22v6.76H7.31Z"/><path class="cls-1" d="M7.36,17H0V7.69H7.37l0,0c0,1.66,0,3.32,0,5,0,1.46,0,2.91,0,4.36Z"/></g></g></svg>