<svg xmlns="http://www.w3.org/2000/svg" xmlns:xlink="http://www.w3.org/1999/xlink" version="1.1" id="Layer_1" x="0px" y="0px" viewBox="0 0 292.4 54.6" style="enable-background:new 0 0 292.4 54.6;" xml:space="preserve" width="292.4" height="54.57">
<path fill="#4E4F87" d="M0.9,54.6C0.9,54.6,0.9,54.6,0.9,54.6c-0.4-0.1-0.6-0.5-0.8-0.8C0,53.5,0,53.2,0.1,53c0-0.1,0.1-0.1,0.1-0.2  c0-0.1,0.1-0.1,0.1-0.2l11.1-11.1c0.2-0.2,0.5-0.4,0.8-0.5c0.2,0,0.4-0.1,0.5-0.1h55.7c0.3,0,0.6,0.1,0.9,0.3  c0.1,0.1,0.2,0.3,0.3,0.4c0,0.1,0,0.3,0,0.5c0,0.3-0.1,0.6-0.3,0.8l-9,9.1l-2,2c-0.3,0.3-0.7,0.5-1.1,0.6c0,0,0,0,0,0.1L0.9,54.6z"/>
<path fill="#4E4F87" d="M292.4,39.9C292.4,39.9,292.3,39.9,292.4,39.9c-0.1,0.5-0.5,0.9-1,0.9h-3.3c-0.5,0-0.9-0.3-1-0.7  c0-0.1,0-0.2,0-0.3v-8.2c0-0.3,0-0.6-0.1-0.8c-0.5-0.5-0.4-0.4-1-0.4h-14.9c-0.3,0-0.6,0-0.8,0.1c-0.2,0.1-0.4,0.3-0.4,0.6  c-0.1,0.1,0,0.2,0,0.3v8c0,0.3,0,0.7-0.1,1l-0.4,0.4c-0.5,0.1-1.1,0.1-1.6,0.1c-0.5,0-1.1,0-1.6,0h-0.4c-0.5,0.1-0.9-0.2-1.1-0.7  V18.6c0-0.5,0.1-1.1,0.3-1.5c0.2-0.6,0.5-1.1,0.9-1.5c0.1-0.1,0.2-0.3,0.3-0.4s0.2-0.2,0.4-0.3c0.3-0.3,0.8-0.5,1.2-0.7  c0.3-0.2,0.6-0.2,1-0.3c0.2,0,0.4,0,0.7-0.1h18.3c0.3,0,0.7,0.1,1,0.2c0.3,0.1,0.6,0.2,0.9,0.3c0.5,0.3,1,0.7,1.4,1.1  c0.3,0.4,0.6,0.8,0.8,1.2c0.2,0.4,0.3,0.8,0.4,1.3c0,0.2,0,0.5,0,0.7c0,0,0,0.1,0.1,0.1V19l-0.1,0l0.1,0.1L292.4,39.9z M287.1,25.8  c0-1.4,0-2.7,0-4.1c0-0.4,0-0.7,0-1.1c-0.1-0.2-0.1-0.4-0.2-0.6c-0.2-0.5-0.6-1-1.1-1.3c-0.4-0.3-1-0.5-1.5-0.5h-11.4  c-0.2,0-0.5,0-0.7,0.1c-0.4,0.1-0.8,0.3-1.1,0.5c-0.4,0.3-0.8,0.8-1,1.3c-0.1,0.3-0.2,0.6-0.2,0.9c0,1.6,0,3.2,0,4.7l0.2,0.4  c0.3,0.2,0.6,0.3,1,0.3h15c0.4,0.1,0.8-0.2,0.9-0.6L287.1,25.8z"/>
<path fill="#4E4F87" d="M69.7,0.8c0,0.2,0,0.3,0,0.5c0,0.3-0.1,0.5-0.3,0.7l-1.5,1.5l-9.5,9.5c-0.3,0.3-0.6,0.5-1,0.6  c-0.2,0-0.3,0.1-0.5,0.1H1.3c-0.4,0-0.7-0.1-0.9-0.4c-0.1-0.1-0.2-0.3-0.3-0.5c-0.1-0.4,0-0.9,0.3-1.1C4,8,7.6,4.3,11.2,0.8  c0.2-0.2,0.4-0.4,0.7-0.5C12.2,0.1,12.4,0,12.7,0h55.8C69,0,69.5,0.3,69.7,0.8L69.7,0.8z"/>
<path fill="#4E4F87" d="M69.7,32.5c0,0.2,0,0.3,0,0.5c0,0.3-0.2,0.6-0.4,0.8C69,33.9,68.8,34,68.5,34H12.9c-0.5,0-1-0.2-1.4-0.6  l-7.9-7.9c-1.1-1-2.1-2.1-3.2-3.1c-0.1-0.1-0.2-0.3-0.3-0.4C0,21.7,0,21.4,0.1,21.1c0.1-0.4,0.4-0.6,0.8-0.7H1c0.1,0,0.1,0,0.2,0  h55.7c0.4,0,0.7,0.2,1,0.3c0.2,0.1,0.4,0.2,0.5,0.4l10.8,10.7C69.4,32,69.6,32.2,69.7,32.5z"/>
<path fill="#4E4F87" d="M140.1,13.8h9c0.3,0,0.5,0,0.8,0.1c0.3,0.1,0.5,0.1,0.7,0.2c0.7,0.2,1.3,0.6,1.8,1.1c0.3,0.3,0.7,0.7,0.9,1.1  c0.2,0.4,0.3,0.7,0.4,1.1c0,0.3,0.1,0.6,0.2,0.8c0,0.1,0,0.1,0,0.2v17.6c0,0.1,0,0.1,0,0.2c-0.1,0.2-0.1,0.5-0.2,0.7  c-0.1,0.3-0.2,0.6-0.3,0.9c-0.1,0.3-0.3,0.5-0.4,0.8c-0.2,0.2-0.4,0.4-0.6,0.6c-0.4,0.4-0.9,0.8-1.4,1c-0.3,0.1-0.7,0.3-1,0.3  c-0.2,0-0.4,0-0.5,0.1c-0.3,0.1-0.7,0.1-1,0.1c-0.3,0-0.7,0-1,0h-16.3c-0.4,0-0.9-0.1-1.3-0.2c-0.4-0.1-0.8-0.3-1.1-0.5  c-0.4-0.2-0.7-0.4-1-0.7c-0.2-0.2-0.3-0.3-0.4-0.5c-0.4-0.4-0.7-1-0.9-1.6c-0.1-0.3-0.2-0.6-0.2-0.9c-0.1-0.2-0.1-0.4-0.1-0.6  c0-5.8,0-11.5,0-17.2c0-1,0.4-2,1-2.8c0.1-0.2,0.3-0.4,0.5-0.6c0.4-0.4,0.9-0.7,1.4-1c0.3-0.1,0.7-0.3,1-0.3c0.1,0,0.3-0.1,0.4-0.1  c0.1,0,0.3,0,0.4-0.1L140.1,13.8L140.1,13.8z M140.1,35.5h5.8c0.2,0,0.4,0,0.5-0.1c0.1,0,0.1,0,0.2-0.1c0.2-0.1,0.4-0.2,0.6-0.3  c0.5-0.3,0.8-0.6,1.1-1.1c0.1-0.1,0.1-0.2,0.2-0.4c0.1-0.1,0.1-0.2,0.1-0.4c0-0.1,0.1-0.3,0.1-0.4c0-0.1,0.1-0.3,0.1-0.4V21.7  c0-0.2-0.1-0.4-0.1-0.6c-0.1-0.2-0.1-0.5-0.2-0.7s-0.2-0.4-0.4-0.6c-0.3-0.3-0.6-0.6-0.9-0.8c-0.4-0.3-1-0.4-1.5-0.4  c-3.5,0-7,0-10.5,0c-0.4,0-0.8,0-1.2,0.1c-0.1,0-0.3,0-0.5,0.1c-0.6,0.2-1.2,0.7-1.6,1.2c-0.4,0.5-0.6,1.1-0.6,1.8  c0,3.5,0,6.9,0,10.4c0,0.3,0,0.6,0.1,0.8c0.1,0.2,0.1,0.4,0.2,0.7c0.2,0.4,0.4,0.8,0.7,1c0.5,0.6,1.3,0.9,2.1,0.9L140.1,35.5z"/>
<path fill="#4E4F87" d="M215.8,40v-8.7c0-0.2-0.1-0.4-0.2-0.6c-0.1-0.1-0.2-0.2-0.4-0.3h-16l-0.4,0.4c-0.1,0.3-0.1,0.5-0.1,0.8v8.5  c-0.1,0.1-0.2,0.3-0.3,0.4c-0.2,0.2-0.4,0.3-0.6,0.3h-3.3c-0.4,0-0.9-0.3-0.9-0.7c-0.1-0.1-0.1-0.3-0.1-0.4V18.8  c0-0.5,0.1-1.1,0.3-1.5c0.2-0.5,0.4-1,0.8-1.5c0.2-0.2,0.4-0.5,0.6-0.7c0.2-0.2,0.5-0.4,0.8-0.6c0.3-0.2,0.6-0.3,1-0.4  c0.3-0.1,0.5-0.1,0.8-0.2c0.6-0.1,1.2-0.1,1.8-0.1h1.8c5,0,9.9,0,14.9,0c0.6,0,1.1,0.1,1.6,0.4c0.2,0.1,0.3,0.1,0.5,0.2  c0.7,0.4,1.4,1,1.9,1.7c0.3,0.5,0.5,0.9,0.6,1.4c0,0.3,0.1,0.5,0.1,0.8c0,0.3,0,0.7,0,1c0,6.8,0,13.6,0,20.4c0,0.3-0.1,0.6-0.3,0.8  c-0.2,0.1-0.4,0.2-0.6,0.2c-1.1,0-2.3,0-3.4,0c-0.3,0-0.6-0.2-0.8-0.5C215.9,40.2,215.9,40.1,215.8,40z M207.3,26.4h7.6  c0.5,0,0.9-0.4,0.9-0.9c0,0,0,0,0,0c0-1.5,0-2.9,0-4.4c0-0.2,0-0.3-0.1-0.5c-0.1-0.6-0.4-1.1-0.8-1.5c-0.3-0.3-0.6-0.5-0.9-0.6  c-0.3-0.2-0.7-0.2-1-0.2h-11.5c-0.2,0-0.3,0-0.5,0.1c-0.4,0.1-0.7,0.2-1,0.4c-0.3,0.2-0.5,0.4-0.7,0.6c-0.1,0.1-0.2,0.3-0.3,0.4  c-0.3,0.4-0.4,1-0.4,1.5v3.7c0,0.2,0,0.4,0,0.7c0,0.3,0.2,0.6,0.5,0.8c0.2,0.1,0.3,0.1,0.5,0.1L207.3,26.4z"/>
<path fill="#4E4F87" d="M116.3,13.9l0.4,0.4c0.1,0.3,0.1,0.6,0,0.9c-0.2,0.2-0.4,0.4-0.6,0.6c-0.4,0.4-0.8,0.8-1.2,1.2  s-0.6,0.6-0.9,0.8s-0.7,0.6-1,0.9c-0.2,0.2-0.4,0.3-0.6,0.4H112H98.6c-0.3,0-0.6,0.1-0.8,0.2c-0.4,0.1-0.7,0.4-1,0.7  c-0.3,0.4-0.5,0.8-0.7,1.3C96,21.6,96,22,96.1,22.4c0.1,0.3,0.2,0.7,0.4,0.9c0.2,0.3,0.4,0.6,0.7,0.8c0.3,0.2,0.5,0.3,0.8,0.4  c0.2,0,0.3,0.1,0.5,0.1c0.4,0.1,0.9,0.1,1.3,0.1c3.6,0,7.1,0,10.7,0c0.2,0,0.5,0,0.7,0.1c0.2,0,0.4,0.1,0.6,0.1  c0.4,0.1,0.8,0.2,1.1,0.3c0.3,0.1,0.6,0.2,0.8,0.4c0.4,0.2,0.8,0.5,1.2,0.8c0.2,0.2,0.5,0.4,0.7,0.6c0.3,0.3,0.6,0.6,0.8,0.9  c0.2,0.2,0.3,0.4,0.4,0.7c0.1,0.2,0.2,0.5,0.4,0.7c0.2,0.4,0.4,0.9,0.5,1.3c0.1,0.4,0.1,0.7,0.2,1.1c0.1,0.6,0.1,1.2,0,1.7  c0,0.4-0.1,0.8-0.2,1.3c-0.2,0.7-0.4,1.3-0.8,2c-0.1,0.3-0.3,0.5-0.5,0.8c-0.3,0.4-0.6,0.7-0.9,1.1c-0.4,0.4-0.9,0.7-1.4,1  c-0.6,0.4-1.2,0.6-1.8,0.8c-0.2,0.1-0.5,0.1-0.7,0.2c-0.2,0-0.3,0-0.5,0.1c-0.2,0.1-0.4,0-0.5,0c-0.3,0.1-0.5,0.1-0.8,0.1  c-0.1,0-0.3,0-0.4-0.1c-0.1,0.1-0.2,0.1-0.4,0.1H92.9c-0.3,0-0.6-0.1-0.8-0.3c-0.1-0.2-0.2-0.4-0.2-0.6c0-0.2,0.1-0.4,0.2-0.5  c0.3-0.4,0.7-0.7,1.1-1c0.2-0.1,0.3-0.3,0.5-0.5s0.5-0.5,0.7-0.6s0.4-0.4,0.7-0.6c0.2-0.1,0.4-0.3,0.6-0.5c0.2-0.2,0.4-0.3,0.6-0.5  c0.1-0.1,0.3-0.2,0.5-0.2h13.4c0.3,0,0.6-0.1,0.9-0.2c0.5-0.2,0.9-0.5,1.2-0.9c0.2-0.3,0.4-0.7,0.5-1.1c0-0.2,0.1-0.4,0.1-0.6  c0-0.6-0.2-1.2-0.6-1.6c-0.3-0.4-0.7-0.7-1.1-0.9c-0.2-0.1-0.4-0.2-0.7-0.2c-0.6-0.1-1.2-0.1-1.8,0H98.4c-0.5,0-1-0.1-1.5-0.2  c-0.3-0.1-0.6-0.2-1-0.3c-0.3-0.1-0.6-0.3-0.9-0.4c-0.4-0.2-0.7-0.4-1-0.6c-0.4-0.2-0.7-0.5-1-0.8c-0.5-0.5-0.9-1.1-1.3-1.7  c-0.3-0.5-0.5-1-0.6-1.5c-0.1-0.2-0.1-0.5-0.2-0.8c0-0.1-0.1-0.2-0.1-0.3s0-0.2-0.1-0.3s0,0,0,0c0-0.4-0.1-0.8-0.1-1.2  c0-0.2,0.1-0.3,0.1-0.5s0-0.3,0.1-0.5c0-0.3,0-0.5,0.1-0.8c0.1-0.3,0.2-0.6,0.3-1s0.3-0.6,0.4-0.9c0.2-0.3,0.5-0.7,0.8-1  c0.4-0.5,0.8-0.9,1.2-1.2c0.4-0.3,0.7-0.6,1.2-0.8l0.6-0.3c0.5-0.2,1-0.4,1.5-0.5c0.1-0.1,0.3,0,0.4-0.1s0.3,0,0.4-0.1  c0.1,0,0.3,0,0.4,0c0.5-0.1,1-0.1,1.5-0.1h15.8C115.7,13.8,116,13.8,116.3,13.9z"/>
<path fill="#4E4F87" d="M256.5,40c-0.1,0.2-0.2,0.3-0.3,0.4c-0.2,0.2-0.4,0.3-0.7,0.3h-4.2l-0.4-0.4c-0.1-0.1-0.3-0.3-0.4-0.4  c-0.1-0.2-0.3-0.3-0.4-0.5s-0.4-0.5-0.6-0.7s-0.4-0.4-0.5-0.6s-0.3-0.3-0.4-0.5s-0.4-0.5-0.6-0.7s-0.4-0.4-0.5-0.6s-0.3-0.3-0.4-0.5  s-0.4-0.5-0.7-0.8c-0.1-0.1-0.2-0.2-0.3-0.3s-0.2-0.2-0.3-0.3s-0.1,0-0.1-0.1c-0.2-0.2-0.4-0.5-0.6-0.7s-0.5-0.6-0.8-1  s-0.5-0.6-0.8-0.9l-0.8-1c-0.3-0.3-0.5-0.6-0.8-0.9s-0.6-0.7-0.9-1s-0.5-0.6-0.7-0.9s-0.7-0.7-1-1.1c-0.1-0.2-0.3-0.3-0.4-0.5  s-0.4-0.5-0.6-0.7s-0.4-0.4-0.5-0.6c0,0-0.1-0.1-0.1-0.1c-0.3-0.3-0.5-0.6-0.8-0.9c-0.2-0.2-0.4-0.4-0.6-0.6s-0.4-0.4-0.6-0.6  s-0.2-0.2-0.3-0.3l-0.7,0.1l-0.1,0.1c-0.2,0.2-0.4,0.5-0.3,0.8c0,5.5,0,11,0,16.5c0,0.2,0,0.4-0.1,0.5c-0.1,0.2-0.2,0.3-0.3,0.4  c-0.2,0.1-0.3,0.2-0.5,0.2H230c-0.4,0-0.7-0.2-0.9-0.6c0-0.1-0.1-0.1-0.1-0.2V14.5c0.1-0.1,0.1-0.2,0.2-0.3c0.2-0.2,0.4-0.3,0.7-0.3  h3.8c0.3,0,0.7,0.2,0.8,0.4l0.1,0.2c0.2,0.2,0.4,0.5,0.6,0.8c0.1,0.2,0.3,0.4,0.5,0.5c0.3,0.4,0.6,0.7,0.9,1.1  c0.1,0.2,0.3,0.3,0.4,0.5c0.3,0.4,0.6,0.7,0.9,1.1s0.6,0.6,0.8,1c0.1,0.1,0.2,0.3,0.4,0.4s0.4,0.4,0.6,0.6s0.6,0.6,0.8,1  c0.1,0.1,0.2,0.3,0.4,0.4s0.4,0.4,0.5,0.6s0.4,0.4,0.5,0.6s0.3,0.3,0.4,0.5s0.4,0.4,0.5,0.6s0.6,0.7,0.9,1s0.4,0.4,0.5,0.6  c0.3,0.4,0.6,0.7,0.9,1.1c0.1,0.2,0.3,0.3,0.4,0.5s0.4,0.4,0.6,0.7c0.1,0.2,0.3,0.3,0.4,0.5c0.3,0.4,0.6,0.7,0.9,1.1l0.7,0.9  c0.3,0.4,0.7,0.8,1,1.2s0.6,0.7,0.8,1c0.2,0,0.3,0.1,0.5,0.1c0.4,0,0.7-0.2,0.8-0.5c0-0.1,0-0.2,0-0.3v-17c0-0.3,0.1-0.6,0.4-0.8  c0.2-0.1,0.3-0.2,0.6-0.2h3.4c0.1,0,0.3,0,0.4,0.1l0.4,0.4c0.1,0.3,0.1,0.7,0.1,1L256.5,40z"/>
<path fill="#4E4F87" d="M168,36.2h17.6c0.5,0,0.9,0.2,1.1,0.5c0,0.1,0.1,0.2,0.1,0.4c0,0.3-0.1,0.5-0.3,0.7c-0.5,0.5-0.9,0.9-1.4,1.4  c-0.3,0.3-0.6,0.7-0.9,1c0,0-0.1,0.1-0.1,0.1c-0.2,0.3-0.5,0.4-0.8,0.5c-0.1,0-0.1,0-0.2,0h-19.8c-0.2,0-0.5-0.1-0.7-0.2  c-0.2-0.1-0.2-0.3-0.3-0.5v-0.4c0-8.3,0-16.7,0-25c0-0.2,0-0.3,0.1-0.4c0.2-0.3,0.5-0.5,0.8-0.5h3.3c0.4,0,0.7,0.2,0.9,0.6  c0,0,0,0.1,0.1,0.1v20.8C167.4,35.6,167.6,36,168,36.2z"/>
</svg>