<svg xmlns="http://www.w3.org/2000/svg" viewBox="0 0 207.39 73.01" width="207.39" height="73.01"><g id="Layer_2" data-name="Layer 2"><g id="Layer_3" data-name="Layer 3"><path d="M67.82,73V54.21H70l.08,1.19A6.56,6.56,0,0,1,75.07,54a6.2,6.2,0,0,1,4.27,2.7,6.3,6.3,0,0,1-.44,7.6c-2.18,2.51-4.79,2.75-8.79.76v8ZM78.09,60.18a4,4,0,1,0-4,4A4,4,0,0,0,78.09,60.18Z" style="fill:#4e4f87"/><path d="M0,54.15H1.75V49.59H4V54.1H7.71v2.23H4.06v2.23c0,1.11,0,2.23,0,3.34A1.9,1.9,0,0,0,6.14,64H7.87l.56,2.12a26.8,26.8,0,0,1-3.48,0,3.83,3.83,0,0,1-3.18-3.8c0-1.93,0-3.86,0-5.94L0,56.44Z" style="fill:#4e4f87"/><path d="M138.36,45.12V1.33c.29,0,.58-.05.86-.05,4.88,0,9.77,0,14.65,0a10.8,10.8,0,0,1,11,9.21c.36,2.19,0,4.1-1.3,6.84a39.49,39.49,0,0,1,4.57,3.87,13.46,13.46,0,0,1,2.69,14.45c-2,5.37-6.1,8.48-11.82,9.34a14.61,14.61,0,0,1-2.2.13c-5.77,0-11.53,0-17.3,0Zm6.47-6.31h12.45a8.16,8.16,0,0,0,8.05-8.12,8.07,8.07,0,0,0-8.06-8.07H144.83Zm0-22.52c3.29,0,6.49.09,9.69,0a4.28,4.28,0,0,0,4-4.41,4.5,4.5,0,0,0-4.45-4.25c-1.62,0-3.24,0-4.85,0h-4.43Z" style="fill:#4e4f87"/><path d="M46.89,1.28c2.14,0,4.22,0,6.3,0,.28,0,.62.39.81.68q6.77,9.94,13.5,19.92l8,11.86V1.34H82V45.12c-1.62,0-3.23-.09-4.83,0a2.69,2.69,0,0,1-2.76-1.43c-6.75-10-13.57-20-20.36-30.06l-.7-1V45.07H46.89Z" style="fill:#4e4f87"/><path d="M1.68,1.32H8v18.6c.41-.35.67-.56.91-.78q9.3-8.73,18.59-17.44a1.45,1.45,0,0,1,.91-.4c2.77,0,5.53,0,8.3,0a2.06,2.06,0,0,1,.39.11L21.6,16l20.75,29c-.36,0-.57.07-.79.07-2.18,0-4.36,0-6.53,0a1.31,1.31,0,0,1-1.23-.64Q25.57,32.94,17.31,21.4c-.19-.26-.38-.52-.62-.83l-5.63,5.28c-.81.76-1.6,1.56-2.44,2.29A1.58,1.58,0,0,0,8,29.51q0,7.27,0,14.55v1H1.68Z" style="fill:#4e4f87"/><path d="M130.9,12.57c4.25,7.39,3.84,19.85-5.68,27.8A22.89,22.89,0,1,1,121.64,3c-1.43,1.49-2.83,3-4.29,4.43a1.16,1.16,0,0,1-1,0A16.12,16.12,0,0,0,103,8.18a16.52,16.52,0,1,0,23.1,9.61.9.9,0,0,1,.27-1.15C127.87,15.28,129.4,13.9,130.9,12.57Z" style="fill:#4e4f87"/><path d="M174.31,38l4.13-4.67c1.58,1.08,3,2.19,4.58,3.12a17.38,17.38,0,0,0,10,2.66A9.46,9.46,0,0,0,198.85,37a5.3,5.3,0,0,0-.92-9c-2.28-1.28-4.83-1.62-7.3-2.23a59.55,59.55,0,0,1-7.35-2.14A11.06,11.06,0,0,1,177.86,7a13.55,13.55,0,0,1,9.06-5.76c6.08-1.23,11.5.51,16.53,3.86.82.56,1.59,1.19,2.46,1.85l-4.12,5c-.39-.3-.74-.59-1.11-.87-3.12-2.36-6.54-3.94-10.55-3.84a8.85,8.85,0,0,0-5.65,1.94,4.8,4.8,0,0,0,.69,8.21c2.12,1.22,4.51,1.62,6.85,2.2a66.71,66.71,0,0,1,7.54,2.09,11.26,11.26,0,0,1,7.5,8.14,12,12,0,0,1-4.74,12.58c-4.32,3.13-9.13,3.66-14.21,2.72a28.52,28.52,0,0,1-13.61-6.85A2.22,2.22,0,0,1,174.31,38Z" style="fill:#4e4f87"/><path d="M125.12,4l4.63,4.42L116.94,21.78l-4.64-4.41Z" style="fill:#4e4f87"/><path d="M162.15,66.12H160l-.13-1.2a6.2,6.2,0,0,1-9.08-1.06,6.36,6.36,0,0,1,.45-8c2.2-2.39,5.12-2.6,8.62-.57l.15-1.14h2.17Zm-2.24-5.94a4,4,0,1,0-4.06,4A4.08,4.08,0,0,0,159.91,60.18Z" style="fill:#4e4f87"/><path d="M193.2,60.13a6.34,6.34,0,1,1-6.39-6.25A6.3,6.3,0,0,1,193.2,60.13Zm-10.32,0a4,4,0,0,0,4,4,4,4,0,1,0,0-8A4,4,0,0,0,182.88,60.14Z" style="fill:#4e4f87"/><path d="M135.84,60.19a6.3,6.3,0,1,1-6.3-6.31A6.26,6.26,0,0,1,135.84,60.19Zm-2.3-.06a4,4,0,1,0-4,4A4,4,0,0,0,133.54,60.13Z" style="fill:#4e4f87"/><path d="M195.53,54.19h2.19l.07.66a19.23,19.23,0,0,1,3.62-.87A5.39,5.39,0,0,1,207,58.89c.17,2.22.06,4.46.07,6.69a3,3,0,0,1-.07.55h-2.22c0-2.06,0-4.08,0-6.1a5.08,5.08,0,0,0-.54-2.17,3.34,3.34,0,0,0-3.86-1.58,3.52,3.52,0,0,0-2.58,3.3c0,1.85,0,3.7,0,5.55v1h-2.24Z" style="fill:#4e4f87"/><path d="M35.7,66.12H33.46V54.2h2.19l.11,1a6.7,6.7,0,0,1,3.83-1.24A5.62,5.62,0,0,1,45,59c.12,2.34,0,4.69,0,7.1H42.77c0-2,.06-4.07,0-6.08a5.19,5.19,0,0,0-.7-2.38,3.29,3.29,0,0,0-3.8-1.33,3.63,3.63,0,0,0-2.53,3.55C35.68,61.91,35.7,64,35.7,66.12Z" style="fill:#4e4f87"/><path d="M112,66.12h-2.22V54.22H112l.07.65a17.78,17.78,0,0,1,3.61-.89,5.54,5.54,0,0,1,5.67,5,7,7,0,0,1,0,.79v6.38H119c0-2.17,0-4.31,0-6.44a3.34,3.34,0,0,0-2.18-3.23,3.26,3.26,0,0,0-3.61.6A3.46,3.46,0,0,0,112,59.76c0,1.82,0,3.64,0,5.46C112,65.51,112,65.79,112,66.12Z" style="fill:#4e4f87"/><path d="M95.57,54.17h2.22l.09.95c.22-.11.42-.2.61-.32a5.65,5.65,0,0,1,8.65,4.44c.15,2.25,0,4.51,0,6.85h-2.29c0-2,0-3.91,0-5.86a6.52,6.52,0,0,0-.14-1.4A3.48,3.48,0,0,0,101,56.18a3.54,3.54,0,0,0-3.14,3.46c0,2.13,0,4.27,0,6.47H95.57Z" style="fill:#4e4f87"/><path d="M53.86,54.19h2.3c0,2.29,0,4.55,0,6.8A3.25,3.25,0,0,0,59,64.18a3.32,3.32,0,0,0,3.58-2.36,5.2,5.2,0,0,0,.12-1.31c0-2.08,0-4.16,0-6.3H65c0,2.58.16,5.14,0,7.67-.22,2.72-3,4.77-5.8,4.58a5.41,5.41,0,0,1-5.26-5.34C53.86,58.83,53.86,56.54,53.86,54.19Z" style="fill:#4e4f87"/><path d="M10.46,54.17h2.26V55c0,1.94,0,3.88,0,5.82a3.28,3.28,0,1,0,6.56,0c0-2.2,0-4.39,0-6.64h2.3v1.45c0,1.79,0,3.58,0,5.37a5.44,5.44,0,0,1-5.27,5.44,5.39,5.39,0,0,1-5.81-4.76C10.31,59.23,10.46,56.73,10.46,54.17Z" style="fill:#4e4f87"/><path d="M166.19,49.56h2.27v4.56h3.71v2.22h-3.64c0,2.09-.05,4.06,0,6A1.8,1.8,0,0,0,170.44,64h1.86l.6,2.13a27.55,27.55,0,0,1-3.41,0,3.86,3.86,0,0,1-3.27-3.9c0-1.9,0-3.81,0-5.78l-1.74-.11V54.19h1.72Z" style="fill:#4e4f87"/><path d="M142.58,63.05c1.1-2.73,2.18-5.29,3.16-7.88.32-.83.73-1.17,1.6-1a9.5,9.5,0,0,0,1.32,0c-.31.8-.58,1.51-.87,2.21-1.22,3-2.47,6-3.67,9a1,1,0,0,1-1.15.78c-1.66,0-1.67,0-2.29-1.54q-2-4.77-3.88-9.53c-.11-.27-.2-.54-.36-1a18.75,18.75,0,0,1,2.14,0c.22,0,.47.37.58.62,1,2.43,2,4.88,3,7.32C142.27,62.38,142.4,62.64,142.58,63.05Z" style="fill:#4e4f87"/><path d="M27.11,66.12H24.86V54.18h2.19l.11,1a8.46,8.46,0,0,1,4.31-1.23A16.59,16.59,0,0,1,31,55.77a.93.93,0,0,1-.64.45,3.68,3.68,0,0,0-3.28,4C27.1,62.17,27.11,64.1,27.11,66.12Z" style="fill:#4e4f87"/><path d="M89.39,54.17h2.17V66.09H89.39Z" style="fill:#4e4f87"/><path d="M175.42,54.18h2.24V66.1h-2.24Z" style="fill:#4e4f87"/><path d="M92,50.74a1.5,1.5,0,0,1-1.51,1.49A1.43,1.43,0,0,1,89,50.75a1.47,1.47,0,0,1,1.48-1.51A1.53,1.53,0,0,1,92,50.74Z" style="fill:#4e4f87"/><path d="M176.51,52.23A1.46,1.46,0,0,1,175,50.74a1.5,1.5,0,1,1,3,0A1.45,1.45,0,0,1,176.51,52.23Z" style="fill:#4e4f87"/></g></g></svg>