<svg xmlns="http://www.w3.org/2000/svg" xmlns:xlink="http://www.w3.org/1999/xlink" viewBox="0 0 285.32 84.97"><defs><linearGradient id="linear-gradient" x1="887.77" y1="398.36" x2="1170.13" y2="398.36" gradientTransform="translate(-884.8 -370.16)" gradientUnits="userSpaceOnUse"><stop offset="0" stop-color="#83bcff"/><stop offset="1" stop-color="#733fff"/></linearGradient></defs><g id="Layer_2" data-name="Layer 2"><g id="Layer_3" data-name="Layer 3"><path d="M9.35,85a9.35,9.35,0,0,1-5-1.27,8.57,8.57,0,0,1-3.23-3.56,12.74,12.74,0,0,1,0-10.58A8.66,8.66,0,0,1,4.38,66a9.27,9.27,0,0,1,5-1.29,8.83,8.83,0,0,1,5.48,1.61,7.26,7.26,0,0,1,2.7,4.49H14.92a5.22,5.22,0,0,0-1.83-2.92,5.81,5.81,0,0,0-3.74-1.11,6.82,6.82,0,0,0-3.67,1,6.38,6.38,0,0,0-2.42,2.77,11.43,11.43,0,0,0,0,8.65,6.32,6.32,0,0,0,2.42,2.77,6.82,6.82,0,0,0,3.67,1,5.92,5.92,0,0,0,3.74-1.08A5.09,5.09,0,0,0,14.92,79h2.61a7.2,7.2,0,0,1-2.7,4.43A8.89,8.89,0,0,1,9.35,85Z" style="fill:#fff"/><path d="M20.77,84.64V64.48h2.36v8.65a4.85,4.85,0,0,1,2-2,5.61,5.61,0,0,1,2.8-.72,5.14,5.14,0,0,1,3.86,1.5,6.39,6.39,0,0,1,1.45,4.61v8.12H30.91V76.77c0-2.9-1.17-4.34-3.5-4.34a4,4,0,0,0-3.05,1.3,5.19,5.19,0,0,0-1.23,3.71v7.2Z" style="fill:#fff"/><path d="M41.41,85a6.15,6.15,0,0,1-2.88-.59,4,4,0,0,1-1.71-1.56,4.19,4.19,0,0,1-.56-2.13,3.79,3.79,0,0,1,1.62-3.28,7.59,7.59,0,0,1,4.43-1.15h3.75V76.1a3.71,3.71,0,0,0-1-2.76,3.47,3.47,0,0,0-2.55-.94,4,4,0,0,0-2.37.69,3,3,0,0,0-1.24,2H36.54a4.42,4.42,0,0,1,1-2.55A5.67,5.67,0,0,1,39.76,71a7.13,7.13,0,0,1,2.8-.55,5.27,5.27,0,0,1,5.85,5.69v8.54h-2.1l-.14-2.5a5.51,5.51,0,0,1-1.72,2A5.07,5.07,0,0,1,41.41,85Zm.36-2a3.79,3.79,0,0,0,2.31-.7,4.31,4.31,0,0,0,1.47-1.82,5.58,5.58,0,0,0,.51-2.35v0H42.5a4.57,4.57,0,0,0-2.92.72,2.22,2.22,0,0,0-.86,1.78,2.17,2.17,0,0,0,.8,1.75A3.49,3.49,0,0,0,41.77,83Z" style="fill:#fff"/><path d="M57,84.64a4.46,4.46,0,0,1-3-.93A4.19,4.19,0,0,1,53,80.38V72.73H50.54v-2H53l.3-3.33h2v3.33h4.09v2H55.3v7.65a2.33,2.33,0,0,0,.53,1.78,2.89,2.89,0,0,0,1.88.46h1.45v2Z" style="fill:#fff"/><path d="M17.55,43.92a13.81,13.81,0,0,1-6.78-1.56A12.13,12.13,0,0,1,6.3,38.19a13.54,13.54,0,0,1-2-5.79H9a8.4,8.4,0,0,0,2.88,5.28,8.81,8.81,0,0,0,5.76,1.86q4.8,0,8-4.47T29,21.12A13,13,0,0,1,24.42,26a13.51,13.51,0,0,1-7.59,2.07,14.19,14.19,0,0,1-6.72-1.68A13.74,13.74,0,0,1,5,21.69a12.7,12.7,0,0,1-2-7.11A14,14,0,0,1,4.74,7.8,14,14,0,0,1,17.49.48a15.8,15.8,0,0,1,7.68,1.71,13.84,13.84,0,0,1,5,4.59,20.5,20.5,0,0,1,2.76,6.45,30.68,30.68,0,0,1,.87,7.29,35.49,35.49,0,0,1-1.92,12.21A18.56,18.56,0,0,1,26.34,41,13.43,13.43,0,0,1,17.55,43.92Zm.3-20.22A9.83,9.83,0,0,0,26.43,19a8.81,8.81,0,0,0,1.32-4.68,9,9,0,0,0-1.32-4.83,9.29,9.29,0,0,0-3.54-3.33,10.43,10.43,0,0,0-5-1.2,10.43,10.43,0,0,0-5,1.2A8.85,8.85,0,0,0,9.33,9.45a9.42,9.42,0,0,0-1.26,4.89,8.78,8.78,0,0,0,2.79,6.81A10,10,0,0,0,17.85,23.7Z" style="fill:url(#linear-gradient)"/><path d="M56.19,43.92a13.81,13.81,0,0,1-6.78-1.56,12.05,12.05,0,0,1-4.47-4.17,13.41,13.41,0,0,1-2-5.79h4.68a8.31,8.31,0,0,0,2.88,5.28,8.78,8.78,0,0,0,5.76,1.86q4.78,0,8-4.47t3.42-13.95A13,13,0,0,1,63.06,26a13.53,13.53,0,0,1-7.59,2.07,14.13,14.13,0,0,1-6.72-1.68,13.66,13.66,0,0,1-5.16-4.71,12.7,12.7,0,0,1-2-7.11A13.84,13.84,0,0,1,43.38,7.8,14,14,0,0,1,56.13.48a15.83,15.83,0,0,1,7.68,1.71,13.92,13.92,0,0,1,5,4.59,20.5,20.5,0,0,1,2.76,6.45,31.2,31.2,0,0,1,.87,7.29,35.49,35.49,0,0,1-1.92,12.21A18.64,18.64,0,0,1,65,41,13.47,13.47,0,0,1,56.19,43.92Zm.3-20.22a9.9,9.9,0,0,0,5-1.29A10,10,0,0,0,65.07,19a8.9,8.9,0,0,0,1.32-4.68,9.07,9.07,0,0,0-1.32-4.83,9.36,9.36,0,0,0-3.54-3.33,10.48,10.48,0,0,0-5-1.2,10.37,10.37,0,0,0-5,1.2A8.79,8.79,0,0,0,48,9.45a9.42,9.42,0,0,0-1.26,4.89,8.78,8.78,0,0,0,2.79,6.81A10,10,0,0,0,56.49,23.7Z" style="fill:url(#linear-gradient)"/><path d="M94.82,43.92A13.84,13.84,0,0,1,88,42.36a12.13,12.13,0,0,1-4.47-4.17,13.54,13.54,0,0,1-2-5.79h4.69a8.35,8.35,0,0,0,2.87,5.28,8.81,8.81,0,0,0,5.76,1.86q4.8,0,8-4.47t3.42-13.95A13,13,0,0,1,101.69,26a13.51,13.51,0,0,1-7.59,2.07,14.19,14.19,0,0,1-6.72-1.68,13.64,13.64,0,0,1-5.15-4.71,12.62,12.62,0,0,1-2-7.11A13.84,13.84,0,0,1,82,7.8a14.13,14.13,0,0,1,5-5.28,14.29,14.29,0,0,1,7.75-2,15.79,15.79,0,0,1,7.67,1.71,14,14,0,0,1,5,4.59,20.71,20.71,0,0,1,2.75,6.45,30.68,30.68,0,0,1,.87,7.29,35.74,35.74,0,0,1-1.91,12.21A18.66,18.66,0,0,1,103.61,41,13.43,13.43,0,0,1,94.82,43.92Zm.3-20.22a9.91,9.91,0,0,0,5-1.29A10.08,10.08,0,0,0,103.71,19,8.89,8.89,0,0,0,105,14.28a9.06,9.06,0,0,0-1.31-4.83,9.43,9.43,0,0,0-3.54-3.33,11.21,11.21,0,0,0-10.09,0A8.85,8.85,0,0,0,86.6,9.45a9.52,9.52,0,0,0-1.26,4.89,8.78,8.78,0,0,0,2.79,6.81A10,10,0,0,0,95.12,23.7Z" style="fill:url(#linear-gradient)"/><path d="M119.3,43.2V0h5V26l12.18-12.54h6.18L129.5,26.88,144.38,43.2H138L124.34,27.78V43.2Z" style="fill:url(#linear-gradient)"/><path d="M166.28,43.92a13.77,13.77,0,0,1-6.51-1.5,10.37,10.37,0,0,1-4.35-4.2l-.48,5h-4.56V0h5V18.36a14,14,0,0,1,4.11-3.9,12.25,12.25,0,0,1,6.81-1.74,14.42,14.42,0,0,1,7.74,2,14,14,0,0,1,5.13,5.58,17.25,17.25,0,0,1,1.83,8,17.07,17.07,0,0,1-1.83,8,13.73,13.73,0,0,1-5.16,5.52A14.74,14.74,0,0,1,166.28,43.92Zm-.54-4.38a9.63,9.63,0,0,0,8.88-5.34,12.5,12.5,0,0,0,1.32-5.88,12.5,12.5,0,0,0-1.32-5.88,10,10,0,0,0-17.76,0,12.5,12.5,0,0,0-1.32,5.88,12.5,12.5,0,0,0,1.32,5.88,9.63,9.63,0,0,0,8.88,5.34Z" style="fill:url(#linear-gradient)"/><path d="M188.9,56.4v-43h4.56l.48,4.92a14,14,0,0,1,4.11-3.9,12.25,12.25,0,0,1,6.81-1.74,14.42,14.42,0,0,1,7.74,2,14,14,0,0,1,5.13,5.58,17.25,17.25,0,0,1,1.83,8,17.07,17.07,0,0,1-1.83,8,13.73,13.73,0,0,1-5.16,5.52,14.74,14.74,0,0,1-7.77,2,13.77,13.77,0,0,1-6.51-1.5,10.37,10.37,0,0,1-4.35-4.2V56.4Zm15.36-16.86a9.63,9.63,0,0,0,8.88-5.34,12.5,12.5,0,0,0,1.32-5.88,12.5,12.5,0,0,0-1.32-5.88,10,10,0,0,0-17.76,0,12.5,12.5,0,0,0-1.32,5.88,12.5,12.5,0,0,0,1.32,5.88,9.63,9.63,0,0,0,8.88,5.34Z" style="fill:url(#linear-gradient)"/><path d="M238.82,43.92a14.22,14.22,0,0,1-8.88-2.7,10.53,10.53,0,0,1-4.14-7.32H231A7.12,7.12,0,0,0,233.45,38a8.1,8.1,0,0,0,5.43,1.71,6.85,6.85,0,0,0,4.68-1.35,4.18,4.18,0,0,0,1.5-3.21q0-2.7-1.95-3.6a26,26,0,0,0-5.49-1.62,30.94,30.94,0,0,1-4.8-1.38,10.9,10.9,0,0,1-4-2.55,5.94,5.94,0,0,1-1.62-4.35,8,8,0,0,1,2.91-6.39A11.73,11.73,0,0,1,238,12.72a12.24,12.24,0,0,1,7.77,2.37,9.46,9.46,0,0,1,3.51,6.75h-5a5.19,5.19,0,0,0-1.95-3.57A7,7,0,0,0,237.92,17a6.67,6.67,0,0,0-4.17,1.14,3.61,3.61,0,0,0-1.47,3,3.12,3.12,0,0,0,1.89,2.82,20.29,20.29,0,0,0,5.13,1.74,44.68,44.68,0,0,1,5.25,1.47,9.92,9.92,0,0,1,4.08,2.58,7,7,0,0,1,1.59,4.95,8.13,8.13,0,0,1-3,6.63Q244.1,43.92,238.82,43.92Z" style="fill:url(#linear-gradient)"/><path d="M257.9,27.9V23.64h11.46V12.72h4.5V23.64h11.46V27.9H273.86v11h-4.5v-11Z" style="fill:url(#linear-gradient)"/></g></g></svg>