<svg xmlns="http://www.w3.org/2000/svg" xmlns:xlink="http://www.w3.org/1999/xlink" viewBox="0 0 132.44 85.06"><defs><linearGradient id="linear-gradient" x1="1210.02" y1="112.22" x2="1324.56" y2="112.22" gradientTransform="translate(-1208.97 -90.5)" gradientUnits="userSpaceOnUse"><stop offset="0" stop-color="#83bcff"/><stop offset="1" stop-color="#733fff"/></linearGradient></defs><g id="Layer_2" data-name="Layer 2"><g id="Layer_3" data-name="Layer 3"><path d="M0,84.72V65.12H11.93v1.93H2.35v6.89H10.5v1.9H2.35v8.88Z" style="fill:#fff"/><path d="M16.24,67.75a1.57,1.57,0,0,1-1.62-1.62A1.49,1.49,0,0,1,15.08,65a1.59,1.59,0,0,1,1.16-.45,1.62,1.62,0,0,1,1.15.45,1.46,1.46,0,0,1,.47,1.12,1.55,1.55,0,0,1-.47,1.16A1.58,1.58,0,0,1,16.24,67.75Zm-1.18,17V70.83h2.36V84.72Z" style="fill:#fff"/><path d="M21.5,84.72V64.56h2.36V84.72Z" style="fill:#fff"/><path d="M34,85.06a6.83,6.83,0,0,1-3.52-.91A6.53,6.53,0,0,1,28,81.61a8,8,0,0,1-.88-3.83A8.07,8.07,0,0,1,28,74a6.3,6.3,0,0,1,2.42-2.54A7,7,0,0,1,34,70.5a6.48,6.48,0,0,1,3.49.91,6.08,6.08,0,0,1,2.25,2.39A6.75,6.75,0,0,1,40.54,77c0,.21,0,.41,0,.62s0,.44,0,.7H29.46A5.37,5.37,0,0,0,30.2,81,4.34,4.34,0,0,0,34,83.07a4.28,4.28,0,0,0,2.44-.67,3.91,3.91,0,0,0,1.43-1.82h2.32A6.11,6.11,0,0,1,34,85.06Zm0-12.58a4.65,4.65,0,0,0-3,1,4.1,4.1,0,0,0-1.5,3h8.74a4,4,0,0,0-1.29-2.94A4.32,4.32,0,0,0,34,72.48Z" style="fill:#fff"/><path d="M56.39,85.06a6.62,6.62,0,0,1-4.14-1.26,4.89,4.89,0,0,1-1.93-3.42h2.4a3.3,3.3,0,0,0,1.17,1.89,3.78,3.78,0,0,0,2.53.8,3.17,3.17,0,0,0,2.18-.63,1.94,1.94,0,0,0,.7-1.5,1.66,1.66,0,0,0-.91-1.68,12.32,12.32,0,0,0-2.56-.76,14.49,14.49,0,0,1-2.24-.64,5,5,0,0,1-1.87-1.19,2.75,2.75,0,0,1-.76-2,3.73,3.73,0,0,1,1.36-3A5.43,5.43,0,0,1,56,70.5a5.73,5.73,0,0,1,3.63,1.1,4.43,4.43,0,0,1,1.63,3.15H58.94A2.4,2.4,0,0,0,58,73.09,3.2,3.2,0,0,0,56,72.48,3,3,0,0,0,54,73a1.68,1.68,0,0,0-.69,1.4,1.44,1.44,0,0,0,.88,1.31,9.27,9.27,0,0,0,2.4.81,22.51,22.51,0,0,1,2.45.69,4.69,4.69,0,0,1,1.9,1.2,3.32,3.32,0,0,1,.74,2.31,3.8,3.8,0,0,1-1.41,3.1A5.88,5.88,0,0,1,56.39,85.06Z" style="fill:#fff"/><path d="M65.07,84.72V64.56h2.35v8.65a5,5,0,0,1,2-2,5.63,5.63,0,0,1,2.8-.71A5.19,5.19,0,0,1,76.08,72a6.41,6.41,0,0,1,1.45,4.61v8.12H75.21V76.85q0-4.34-3.5-4.34a4,4,0,0,0-3,1.3,5.17,5.17,0,0,0-1.24,3.71v7.2Z" style="fill:#fff"/><path d="M85.71,85.06a6.35,6.35,0,0,1-2.89-.59,4,4,0,0,1-1.7-1.57,4.14,4.14,0,0,1-.56-2.13,3.76,3.76,0,0,1,1.62-3.27,7.5,7.5,0,0,1,4.42-1.15h3.76v-.17a3.7,3.7,0,0,0-1-2.76,3.47,3.47,0,0,0-2.54-.94,4,4,0,0,0-2.37.69,3,3,0,0,0-1.25,2H80.83a4.49,4.49,0,0,1,1-2.55A5.78,5.78,0,0,1,84.06,71a7.27,7.27,0,0,1,2.8-.54,5.25,5.25,0,0,1,5.85,5.68v8.54h-2.1l-.14-2.49a5.56,5.56,0,0,1-1.72,2A5.07,5.07,0,0,1,85.71,85.06Zm.36-2a3.79,3.79,0,0,0,2.31-.7,4.37,4.37,0,0,0,1.47-1.82,5.62,5.62,0,0,0,.51-2.35v0H86.8a4.67,4.67,0,0,0-2.93.71A2.23,2.23,0,0,0,83,80.66a2.16,2.16,0,0,0,.8,1.75A3.43,3.43,0,0,0,86.07,83.07Z" style="fill:#fff"/><path d="M96.23,84.72V70.83h2.13l.2,2.66a5,5,0,0,1,2-2.18,6.1,6.1,0,0,1,3.25-.81V73h-.65a5.81,5.81,0,0,0-2.27.43,3.45,3.45,0,0,0-1.65,1.47,5.63,5.63,0,0,0-.61,2.86v7Z" style="fill:#fff"/><path d="M112.11,85.06a6.9,6.9,0,0,1-3.53-.91,6.57,6.57,0,0,1-2.42-2.54,7.88,7.88,0,0,1-.88-3.83,8.07,8.07,0,0,1,.87-3.83,6.18,6.18,0,0,1,2.42-2.54,6.93,6.93,0,0,1,3.6-.91,6.45,6.45,0,0,1,3.48.91,6.17,6.17,0,0,1,2.26,2.39,6.75,6.75,0,0,1,.78,3.19c0,.21,0,.41,0,.62s0,.44,0,.7H107.6a5.59,5.59,0,0,0,.74,2.64,4.37,4.37,0,0,0,3.77,2.12,4.3,4.3,0,0,0,2.44-.67A3.83,3.83,0,0,0,116,80.58h2.33a6.36,6.36,0,0,1-2.14,3.2A6.27,6.27,0,0,1,112.11,85.06Zm0-12.58a4.65,4.65,0,0,0-3,1,4.1,4.1,0,0,0-1.5,3h8.74a4,4,0,0,0-1.29-2.94A4.32,4.32,0,0,0,112.11,72.48Z" style="fill:#fff"/><path d="M127.12,85.06A6.67,6.67,0,0,1,123,83.8,4.93,4.93,0,0,1,121,80.38h2.41a3.34,3.34,0,0,0,1.16,1.89,3.81,3.81,0,0,0,2.54.8,3.19,3.19,0,0,0,2.18-.63,1.94,1.94,0,0,0,.7-1.5,1.66,1.66,0,0,0-.91-1.68,12.51,12.51,0,0,0-2.56-.76,14.18,14.18,0,0,1-2.24-.64,5.17,5.17,0,0,1-1.88-1.19,2.78,2.78,0,0,1-.75-2,3.75,3.75,0,0,1,1.35-3,5.48,5.48,0,0,1,3.69-1.16,5.68,5.68,0,0,1,3.62,1.1A4.44,4.44,0,0,1,132,74.75h-2.32a2.44,2.44,0,0,0-.91-1.66,3.22,3.22,0,0,0-2.06-.61,3.1,3.1,0,0,0-2,.54,1.67,1.67,0,0,0-.68,1.4,1.44,1.44,0,0,0,.88,1.31,9.18,9.18,0,0,0,2.39.81,21.31,21.31,0,0,1,2.45.69,4.66,4.66,0,0,1,1.91,1.2,3.32,3.32,0,0,1,.74,2.31,3.78,3.78,0,0,1-1.42,3.1A5.86,5.86,0,0,1,127.12,85.06Z" style="fill:#fff"/><path d="M22.35,42.72v-9H1.05v-3.9L21.45.72h5.88V29.28h6.24v4.44H27.33v9ZM6.63,29.28h16V6.3Z" style="fill:url(#linear-gradient)"/><path d="M58.53,43.44a19.3,19.3,0,0,1-10.32-2.73,18.47,18.47,0,0,1-6.9-7.62,24.84,24.84,0,0,1-2.46-11.31,24.78,24.78,0,0,1,2.49-11.34,18.51,18.51,0,0,1,7.08-7.68A20.62,20.62,0,0,1,59.25,0,19.54,19.54,0,0,1,71,3.42a15.51,15.51,0,0,1,6.09,9.42H71.31a9.66,9.66,0,0,0-4-6,13.69,13.69,0,0,0-8.07-2.22,15.23,15.23,0,0,0-8,2.07A13.88,13.88,0,0,0,45.9,12.6,20.6,20.6,0,0,0,44,21.78,20.88,20.88,0,0,0,45.87,31,14,14,0,0,0,51,36.87a14.15,14.15,0,0,0,7.68,2.07q6.72,0,10.14-3.93t3.9-10.77H60.63v-4H77.91V42.72H73.29l-.42-6.9a16.73,16.73,0,0,1-5.58,5.64A16.91,16.91,0,0,1,58.53,43.44Z" style="fill:url(#linear-gradient)"/><path d="M86.73,42.72V.72h14.76a16.84,16.84,0,0,1,7.35,1.41A9.89,9.89,0,0,1,113.19,6a10.45,10.45,0,0,1,1.44,5.43,9,9,0,0,1-2.19,6.42,11.52,11.52,0,0,1-5.25,3.24,9.93,9.93,0,0,1,4.26,1.86,10.35,10.35,0,0,1,3,3.6,10.22,10.22,0,0,1,1.11,4.74A11.07,11.07,0,0,1,114,37.05a10.87,10.87,0,0,1-4.62,4.14A16.5,16.5,0,0,1,102,42.72Zm5-23.64h9.36a9.1,9.1,0,0,0,6.18-1.89,6.61,6.61,0,0,0,2.16-5.25,6.53,6.53,0,0,0-2.13-5.1Q105.21,4.92,101,4.92H91.77Zm0,19.44h9.66q4.32,0,6.66-2a7,7,0,0,0,2.34-5.61A7.13,7.13,0,0,0,108,25.23a9.83,9.83,0,0,0-6.66-2.13H91.77Z" style="fill:url(#linear-gradient)"/></g></g></svg>