<svg xmlns="http://www.w3.org/2000/svg" viewBox="0 0 36 29.41"><g id="Layer_2" data-name="Layer 2"><g id="Layer_3" data-name="Layer 3"><path d="M36,3.5a.19.19,0,0,0-.21,0,14.21,14.21,0,0,1-3.38,1A7.54,7.54,0,0,0,35,.77.17.17,0,0,0,35,.58a.17.17,0,0,0-.2,0A14.4,14.4,0,0,1,30.26,2.3a7.5,7.5,0,0,0-12.9,5.21A7.29,7.29,0,0,0,17.51,9,20.64,20.64,0,0,1,2.8,1.41a.18.18,0,0,0-.15-.07.19.19,0,0,0-.14.09,7.53,7.53,0,0,0,1.8,9.66,7.1,7.1,0,0,1-2.61-.85.19.19,0,0,0-.18,0,.19.19,0,0,0-.09.15v.1A7.55,7.55,0,0,0,6.7,17.67a7.19,7.19,0,0,1-2.49,0,.18.18,0,0,0-.17.06.17.17,0,0,0,0,.17,7.5,7.5,0,0,0,6.51,5.19,14.39,14.39,0,0,1-8.59,2.81,14.17,14.17,0,0,1-1.72-.1.18.18,0,0,0-.19.12.18.18,0,0,0,.07.21,20.89,20.89,0,0,0,11.31,3.32c13.13,0,21-10.7,21-21,0-.28,0-.57,0-.86A15.09,15.09,0,0,0,36,3.72.2.2,0,0,0,36,3.5Z" style="fill:#8193b2"/></g></g></svg>