<svg xmlns="http://www.w3.org/2000/svg" viewBox="0 0 786 179"><g id="Layer_2" data-name="Layer 2"><g id="Layer_1-2" data-name="Layer 1"><g id="Satellite.im_logo" data-name="Satellite.im logo"><path d="M249.1,91.4a9.11,9.11,0,0,0-3-6.8c-2-1.9-4.8-2.9-8.5-2.9-3.1,0-5.5.6-7.3,1.9a6.35,6.35,0,0,0-2,8.1,5.81,5.81,0,0,0,2.3,2.4,19.57,19.57,0,0,0,4.3,1.9,51.25,51.25,0,0,0,6.7,1.6c6.8,1.2,12,3.3,15.6,6.2s5.4,7.2,5.4,12.9v1.1A19.68,19.68,0,0,1,261,126a18,18,0,0,1-4.7,6.3,21,21,0,0,1-7.4,4,33.12,33.12,0,0,1-9.8,1.4,32.68,32.68,0,0,1-11.3-1.8,23.62,23.62,0,0,1-8.1-5,20,20,0,0,1-4.9-7.5,26.17,26.17,0,0,1-1.7-9.4v-2.8h12.2v2.2c0,3.9,1.1,7,3.4,9.3s5.8,3.5,10.5,3.5c3.7,0,6.5-.8,8.3-2.4a7.39,7.39,0,0,0,2.7-5.7,7.65,7.65,0,0,0-.6-3,6.72,6.72,0,0,0-1.9-2.6,12.23,12.23,0,0,0-3.8-2.1,40.43,40.43,0,0,0-6.1-1.6,65.91,65.91,0,0,1-9-2.2,24.93,24.93,0,0,1-7.1-3.6,15,15,0,0,1-4.7-5.6,18.12,18.12,0,0,1-1.7-8.2v-.6a16.69,16.69,0,0,1,1.6-7.4,18.54,18.54,0,0,1,4.5-5.9,19.86,19.86,0,0,1,7-3.9,29.14,29.14,0,0,1,9.2-1.4,29.52,29.52,0,0,1,10.2,1.6,22.88,22.88,0,0,1,7.5,4.4,18.66,18.66,0,0,1,4.5,6.4,19.44,19.44,0,0,1,1.5,7.6v3.3H249.1Z" style="fill:#fff"/><path d="M306,129.8a12.05,12.05,0,0,1-5.2,6.2,16.05,16.05,0,0,1-7.8,1.8,18.46,18.46,0,0,1-7.8-1.6,18,18,0,0,1-6.4-4.6,23.44,23.44,0,0,1-4.4-7.4,27.79,27.79,0,0,1-1.6-9.9v-1.5a27.61,27.61,0,0,1,1.6-9.8,21.54,21.54,0,0,1,4.3-7.4,19.27,19.27,0,0,1,6.3-4.7,17.88,17.88,0,0,1,7.6-1.6,16.24,16.24,0,0,1,7.9,1.7,11.61,11.61,0,0,1,4.8,5.2H307V90.6h11.7v31.9c0,1.9.8,2.8,2.5,2.8H323v11.1h-8a6.86,6.86,0,0,1-5.1-1.9,6.25,6.25,0,0,1-2-4.8H306Zm-10.4-3.2a10.5,10.5,0,0,0,8.2-3.4,13.45,13.45,0,0,0,3.1-9.2v-1.1c0-3.9-1-7-3.1-9.2a10.36,10.36,0,0,0-8.2-3.4,10.5,10.5,0,0,0-8.2,3.4,13.45,13.45,0,0,0-3.1,9.2V114c0,3.9,1,7,3.1,9.2A10.5,10.5,0,0,0,295.6,126.6Z" style="fill:#fff"/><path d="M331.4,90.4h7.3V71.5h11.7V90.4H367v11.1H350.4v21c0,1.9.8,2.8,2.5,2.8h12.4v11.1H345.8a6.93,6.93,0,0,1-5.1-2,7.33,7.33,0,0,1-2-5.2V101.6h-7.3Z" style="fill:#fff"/><path d="M562.9,90.4h7.3V71.5h11.7V90.4h16.6v11.1H581.9v21c0,1.9.8,2.8,2.5,2.8h12.4v11.1H577.3a6.93,6.93,0,0,1-5.1-2,7.33,7.33,0,0,1-2-5.2V101.6h-7.3V90.4Z" style="fill:#fff"/><path d="M385.3,117.2a9.73,9.73,0,0,0,1,3.8,11.33,11.33,0,0,0,2.4,3,10.78,10.78,0,0,0,3.5,1.9,11.58,11.58,0,0,0,4.2.7,12.55,12.55,0,0,0,6.7-1.5,8.34,8.34,0,0,0,3.3-3.7l10,5.6a22,22,0,0,1-2.3,3.7,18.38,18.38,0,0,1-3.8,3.5,20.73,20.73,0,0,1-5.8,2.6,27.08,27.08,0,0,1-7.9,1,26.32,26.32,0,0,1-9.5-1.7,21.49,21.49,0,0,1-7.4-4.8,21,21,0,0,1-4.8-7.7,30.06,30.06,0,0,1-1.7-10.3v-.6a24.87,24.87,0,0,1,1.8-9.6,21.5,21.5,0,0,1,5-7.4,24.84,24.84,0,0,1,7.4-4.8,24.42,24.42,0,0,1,9-1.7,22.62,22.62,0,0,1,10.2,2.1,22.32,22.32,0,0,1,7,5.3,20.79,20.79,0,0,1,4.1,7,22.78,22.78,0,0,1,1.3,7.5v6.2H385.3Zm11.1-17.5a10.91,10.91,0,0,0-7.2,2.3,9.9,9.9,0,0,0-3.6,5.2h21.7a8.09,8.09,0,0,0-3.5-5.4A12.66,12.66,0,0,0,396.4,99.7Z" style="fill:#fff"/><path d="M424,125.3h16.1V82.6H424.5V71.5h27.3v53.8h15v11.1H424Z" style="fill:#fff"/><path d="M470.5,125.3h16.1V82.6H471V71.5h27.3v53.8h15v11.1H470.5Z" style="fill:#fff"/><path d="M517.6,125.3h15.6V101.6H518.7V90.5h26.1v34.9h13.4v11.1H517.6Zm30.2-48.5a8.42,8.42,0,0,1-.7,3.5,9,9,0,0,1-4.7,4.7,8,8,0,0,1-3.4.7,7.67,7.67,0,0,1-3.4-.7,9,9,0,0,1-4.7-4.7,8.12,8.12,0,0,1-.7-3.5,8.42,8.42,0,0,1,.7-3.5,9,9,0,0,1,4.7-4.7,7.67,7.67,0,0,1,3.4-.7,8,8,0,0,1,3.4.7,9,9,0,0,1,4.7,4.7A10.39,10.39,0,0,1,547.8,76.8Z" style="fill:#fff"/><path d="M615.8,117.2a9.73,9.73,0,0,0,1,3.8,11.33,11.33,0,0,0,2.4,3,10.78,10.78,0,0,0,3.5,1.9,11.58,11.58,0,0,0,4.2.7,12.55,12.55,0,0,0,6.7-1.5,8.34,8.34,0,0,0,3.3-3.7l10,5.6a22,22,0,0,1-2.3,3.7,18.38,18.38,0,0,1-3.8,3.5,20.73,20.73,0,0,1-5.8,2.6,27.08,27.08,0,0,1-7.9,1,26.32,26.32,0,0,1-9.5-1.7,21.49,21.49,0,0,1-7.4-4.8,21,21,0,0,1-4.8-7.7,30.06,30.06,0,0,1-1.7-10.3v-.6a24.87,24.87,0,0,1,1.8-9.6,21.5,21.5,0,0,1,5-7.4,24.84,24.84,0,0,1,7.4-4.8,24.42,24.42,0,0,1,9-1.7,22.62,22.62,0,0,1,10.2,2.1,22.32,22.32,0,0,1,7,5.3,20.79,20.79,0,0,1,4.1,7,22.78,22.78,0,0,1,1.3,7.5v6.2H615.8Zm11-17.5a10.91,10.91,0,0,0-7.2,2.3,9.9,9.9,0,0,0-3.6,5.2h21.7a8.09,8.09,0,0,0-3.5-5.4A12.23,12.23,0,0,0,626.8,99.7Z" style="fill:#fff"/><path d="M674.2,128.9a8.42,8.42,0,0,1-.7,3.5,9,9,0,0,1-4.7,4.7,8,8,0,0,1-3.4.7,7.67,7.67,0,0,1-3.4-.7,9,9,0,0,1-4.7-4.7,8.12,8.12,0,0,1-.7-3.5,8.42,8.42,0,0,1,.7-3.5,9,9,0,0,1,4.7-4.7,7.67,7.67,0,0,1,3.4-.7,8,8,0,0,1,3.4.7,9,9,0,0,1,4.7,4.7A10.39,10.39,0,0,1,674.2,128.9Z" style="fill:#fff"/><path d="M685.4,125.3H701V101.6H686.5V90.5h26.1v34.9H726v11.1H685.4Zm30.1-48.5a8.42,8.42,0,0,1-.7,3.5,9,9,0,0,1-4.7,4.7,8,8,0,0,1-3.4.7,7.67,7.67,0,0,1-3.4-.7,9,9,0,0,1-4.7-4.7,8.12,8.12,0,0,1-.7-3.5,8.42,8.42,0,0,1,.7-3.5,9,9,0,0,1,4.7-4.7,7.67,7.67,0,0,1,3.4-.7,8,8,0,0,1,3.4.7,9,9,0,0,1,4.7,4.7A8.42,8.42,0,0,1,715.5,76.8Z" style="fill:#fff"/><path d="M786,136.4H774.3V104.1a3.66,3.66,0,0,0-1-2.9,3.39,3.39,0,0,0-2.6-1,4,4,0,0,0-2.9,1.1,4.68,4.68,0,0,0-1.1,3.3v31.7H755V104a3.69,3.69,0,0,0-1.1-2.9,3.47,3.47,0,0,0-2.5-1,4.11,4.11,0,0,0-2.8,1.1,4.68,4.68,0,0,0-1.1,3.3v31.7H735.8v-46h11.7v4.5h1.7a7,7,0,0,1,2.6-4.1A7.88,7.88,0,0,1,757,89a8.26,8.26,0,0,1,5.2,1.6,8.4,8.4,0,0,1,2.9,4.1h1.7a7.33,7.33,0,0,1,3.1-4.1,10,10,0,0,1,5.9-1.6,9.24,9.24,0,0,1,7.4,3.1c1.9,2.1,2.8,4.9,2.8,8.6v35.7Z" style="fill:#fff"/><path d="M101.7,26.7A76.06,76.06,0,0,0,43.6,151.9v24.6a1.51,1.51,0,0,0,2.2,1.3l16.8-9.7A76.13,76.13,0,1,0,101.7,26.7Zm0,130.3a54,54,0,1,1,54-54A54,54,0,0,1,101.7,157Z" style="fill:#fff"/><path d="M36.2,18.1A18.1,18.1,0,1,0,18.1,36.2,18.1,18.1,0,0,0,36.2,18.1Z" style="fill:#fff"/></g></g></g></svg>