<svg xmlns="http://www.w3.org/2000/svg" xmlns:xlink="http://www.w3.org/1999/xlink" viewBox="0 0 1048.69 1048.67"><defs><linearGradient id="linear-gradient" x1="-934.61" y1="826.69" x2="-258.3" y2="25.47" gradientTransform="translate(1036.2 -0.36) rotate(-10.17)" gradientUnits="userSpaceOnUse"><stop offset="0" stop-color="#83bcff"/><stop offset="1" stop-color="#733fff"/></linearGradient><linearGradient id="linear-gradient-2" x1="-1103.04" y1="632.08" x2="-489.04" y2="-95.31" xlink:href="#linear-gradient"/><linearGradient id="linear-gradient-3" x1="-814.13" y1="928.39" x2="-530.18" y2="591.99" xlink:href="#linear-gradient"/></defs><g id="Layer_2" data-name="Layer 2"><g id="bg"><path d="M1039.87,431.91c28.13,156.86-16.72,309.8-110.28,424.17a521.55,521.55,0,0,1-312.85,183.78C417,1075.67,223.43,993.14,108,842.26a517.8,517.8,0,0,1-57.94-95.49A523,523,0,0,1,8.82,616.83c-51.07-284.77,138.34-557,423-608A523.68,523.68,0,0,1,552.72,1.26C789.92,13.89,996.11,187.93,1039.87,431.91Z" style="fill:none;stroke-miterlimit:10;stroke:url(#linear-gradient)"/><path d="M744,174.13,108,842.26a517.8,517.8,0,0,1-57.94-95.49A523,523,0,0,1,8.82,616.83c-51.07-284.77,138.34-557,423-608A523.68,523.68,0,0,1,552.72,1.26Z" style="fill:none;stroke-miterlimit:10;stroke:url(#linear-gradient-2)"/><path d="M929.59,856.08a521.55,521.55,0,0,1-312.85,183.78C417,1075.67,223.43,993.14,108,842.26L294.09,646.78Z" style="fill:none;stroke-miterlimit:10;stroke:url(#linear-gradient-3)"/></g></g></svg>