<svg xmlns="http://www.w3.org/2000/svg" viewBox="0 0 328.96 58.01" width="328.96" height="58.01"><defs><style>.cls-1{fill:#4e4f87;}</style></defs><g id="Layer_2" data-name="Layer 2"><g id="Layer_3" data-name="Layer 3"><path class="cls-1" d="M92.18,0q0,14.29-.09,28.59c0,2,1.17,2.48,2.54,1.56a59.92,59.92,0,0,0,6.07-5c1-.87,1.86-1.87,2.77-2.83,1.69-1.8,1.43-2.63-1-3.25a1.72,1.72,0,0,1-1.14-.86h11.86l.23.6c-6,.4-8.87,5-12.63,8.47-1.29,1.2-1.37,2.27-.18,3.57,3.1,3.37,6,6.89,9.28,10.13A56.44,56.44,0,0,0,116,45.7c-2.85,1.33-8.33.42-10.58-2.08-2.5-2.77-4.91-5.61-7.36-8.42a5.91,5.91,0,0,0-1.22-1.39c-1.29-.74-2.66-1.32-4-2a33.89,33.89,0,0,0-.67,3.68c-.12,1.7,0,3.41,0,5.12,0,3.09.36,3.49,3.45,4.17a3.47,3.47,0,0,1,.85.32c.1.06.12.26.31.68H82.11c.78-.51,1.15-1,1.53-1,2.81-.1,3.51-2,3.56-4.24.07-3.49,0-7,0-10.46,0-7.13,0-14.26,0-21.39,0-3.68-.14-3.72-3.8-4.88-.32-.11-.57-.44-1.42-1.11,2.21-.53,3.91-.84,5.54-1.37A7.2,7.2,0,0,0,89.38,0Z"/><path class="cls-1" d="M0,56.76c4.24-1,6.39-4,7.37-7.9A36.47,36.47,0,0,0,8.45,40.6c.14-8.76.08-17.52.06-26.28,0-4.49-.42-5-4.74-6.4-.37-.12-.67-.48-.89-1.28H19.34l.17.67A8.17,8.17,0,0,1,18.1,8c-3.51.86-4.23,1.7-4.25,5.29,0,7.37.17,14.74-.1,22.09a72.39,72.39,0,0,1-1.63,13.3c-1.08,4.79-4.46,7.9-9.23,9.28A8.29,8.29,0,0,1,0,57.69Z"/><path class="cls-1" d="M220,45.51c-2.83,1.63-8.64.85-11.38-2.17A102.42,102.42,0,0,1,201.75,34c-.86-1.19-1.65-2.44-2.44-3.67-1.47-2.3-3.76-2.3-6-1.94-.52.08-1.25,1.16-1.27,1.8-.12,3.4-.13,6.82,0,10.22a4.19,4.19,0,0,0,3.75,4.12l2.09.45c-1.62,1.36-15.23,1.41-17,.18a9.23,9.23,0,0,1,1.48-.59c2.91-.56,4.27-1.81,4.29-4.59.09-9.14.08-18.29,0-27.43a4.29,4.29,0,0,0-3.72-4.43,21.75,21.75,0,0,1-2.44-.91c.83-.46,1.14-.79,1.44-.78,7.63.17,15.27.15,22.88.65,3.91.26,7.33,2.08,9,6s.69,7.6-3.22,10.58a20.7,20.7,0,0,1-4.66,2.61c-1.37.55-1.78,1.18-.92,2.39,3,4.29,5.92,8.72,9.25,12.77C215.64,43.23,218,44.16,220,45.51Zm-23.11-19c.85,0,1.71,0,2.56,0,8.59-.48,10.7-8.73,7.67-13.95-2.27-3.91-6.28-4.8-10.5-4.77-3,0-4.59,1.67-4.68,4.65s0,6.19,0,9.29C191.93,26.62,191.93,26.62,196.93,26.53Z"/><path class="cls-1" d="M50.32,45.65c-3.39,1.91-7.12,1.08-8.56-1.86C40.9,42,40.24,42.28,39,43.35a12.5,12.5,0,0,1-11.93,2.87,5.75,5.75,0,0,1-4.46-4.85c-.49-2.72-.32-5.55,2.36-7a37,37,0,0,1,8-2.91c2-.55,4.18-.48,6.23-.91.75-.16,2-1,2-1.49a29.6,29.6,0,0,0-.87-7.72c-.81-2.58-3.65-3.59-7.06-3.25a4.77,4.77,0,0,0-4.51,4c-.17,1.47.55,3,.93,4.89a3,3,0,0,1-4.14-.92,5.07,5.07,0,0,1,2.65-7.78,20.68,20.68,0,0,1,12-.31,7.42,7.42,0,0,1,5.71,7.52c0,4.26.1,8.52,0,12.78C45.74,41.66,45.94,44.74,50.32,45.65ZM41.39,34.71c.14-2.62-.54-3.81-3.4-2.79-.57.2-1.29,0-1.84.22-2.27.92-4.72,1.62-6.68,3s-2.14,5.08-.61,7.16c1.72,2.34,3.75,2.76,6.57,1.55C39.5,42.1,41.12,38.85,41.39,34.71Z"/><path class="cls-1" d="M300.47,39.55a10,10,0,0,1-1,2.28,12,12,0,0,1-8.53,4.74c-9.54,1-16.07-3.75-16.62-13.67a14.56,14.56,0,0,1,7.28-14.08c7-4.35,16.76-.44,18.25,7.4.58,3.06-.24,4.25-3.42,4.34-4.44.11-8.88,0-13.33,0-3.31,0-3.9.66-3.19,3.89.8,3.68,1.94,7.15,5.73,9.08a9.72,9.72,0,0,0,12.09-2.17l1.92-2.22Zm-14.29-10.2v0c1.64,0,3.28.09,4.91,0,2.35-.16,4-1.75,3.82-3.85a7.17,7.17,0,0,0-3.78-6.27,6.41,6.41,0,0,0-7.6.92,9.72,9.72,0,0,0-3.61,8c0,.44,1.15,1.15,1.83,1.24A34.41,34.41,0,0,0,286.18,29.35Z"/><path class="cls-1" d="M144,39.3a8.08,8.08,0,0,1-.67,2,11.3,11.3,0,0,1-7.09,4.91c-6.91,1.55-12.58-.32-16-5.27s-3.18-12.65.27-18C125,16.07,135.68,16,140,19.82c2.48,2.17,3.35,5,3.52,8.06.1,1.93-1.29,2.54-2.91,2.57-4.52.09-9,.11-13.55.13-3.91,0-4.44.7-3.5,4.57.88,3.57,2.26,6.73,5.84,8.5a9.63,9.63,0,0,0,11.69-2.14c.68-.75,1.36-1.48,2.06-2.2C143.26,39.24,143.48,39.3,144,39.3ZM130,29.34v0c1.56,0,3.12.11,4.67,0,2-.17,3.72-1.08,3.83-3.32a7,7,0,0,0-3.5-6.65,6.3,6.3,0,0,0-7,.22c-2.81,1.76-3.9,4.52-4.5,7.54-.28,1.41.35,2.25,1.87,2.26S128.4,29.34,130,29.34Z"/><path class="cls-1" d="M79,40.14a9.16,9.16,0,0,1-1.07,2c-4.25,4.69-9.65,5.65-15.37,3.79-5.08-1.66-7.41-5.85-8-11-1.34-11,6-18.51,17.06-17.54,3.89.34,6.77,2.38,6.9,5.36a6.45,6.45,0,0,1-1.43,4.14c-1,1.2-2.76,1.26-4.4.09.29-.54.54-1.06.84-1.56,1.63-2.67,1-5-1.89-6.22-3-1.34-5.75-.61-8.26,1.4-4.75,3.81-4.94,18,.68,22.09,4.11,3,9.1,2.67,12.55-1.16a11,11,0,0,0,1.25-2.38Z"/><path class="cls-1" d="M320.28,45.82H305.19c.67-.56.86-.83,1.1-.91,3.69-1.07,3.87-1.27,3.89-5.07,0-4.35,0-8.69,0-13,0-5.1,0-5.1-4.94-7.26,1.22-.47,2.07-.87,2.95-1.12,1.49-.41,3-.65,4.52-1.09s2.16-.05,2.14,1.6a10.4,10.4,0,0,0,.57,2.58c.78-.38,1.59-.71,2.34-1.15a43.52,43.52,0,0,1,4.18-2.5c3.25-1.41,6.09-.22,6.95,3.14.27,1.06-.52,2.73-1.37,3.63s-2.29,1-3.47,1.49l-.4-.67c.17-.45.56-.95.49-1.36-.19-1.14-.26-2.57-1-3.27a3.55,3.55,0,0,0-3.11-.3c-3.39,1.39-5.6,3.54-5.19,7.76.37,3.76.06,7.59.08,11.38,0,4,.24,4.2,4,5.23C319.23,45,319.45,45.23,320.28,45.82Z"/><path class="cls-1" d="M149.33,18.82c2-1.47,4-2.48,5.41-4s2.08-3.45,3.09-5.2l.95.36c-.13,1.87-.19,3.76-.42,5.62s.51,2.62,2.35,2.46,3.71-.3,5.56-.44l.53.66c-.53.47-1,1.29-1.6,1.35a26.89,26.89,0,0,1-4.2-.14c-1.35-.09-2.07.48-2.06,1.87,0,6.43-.06,12.87.08,19.3.07,2.92,1.85,4.33,4.78,4.19,1.43-.07,2.84-.33,4.27-.5,0,.4.12.62.05.68-2.65,2.29-5.84,2.49-9,1.71a5.88,5.88,0,0,1-4.75-5.68c-.22-5.18-.25-10.37-.36-15.56,0-.85,0-1.7,0-2.56,0-3.19,0-3.18-3.26-3.54A7.38,7.38,0,0,1,149.33,18.82Z"/><path class="cls-1" d="M260.83,18.23H273c-.17.38-.22.62-.29.63-4.29.41-5.82,3.52-7.18,7-2.46,6.27-5.07,12.48-7.7,18.68-.35.81-1.24,1.39-1.88,2.08-.7-.71-1.7-1.3-2.07-2.16-2-4.78-3.75-9.68-5.85-14.42-1.94-4.39-2.55-9.83-8.79-11.3,2.89-1.56,7.2-1.08,8.92,1.21a40,40,0,0,1,4.07,7.48c1.58,3.44,2.91,7,4.42,10.47A5.83,5.83,0,0,0,258,39.3a7.1,7.1,0,0,0,1.18-1.54c1.8-4.61,3.53-9.25,5.3-13.87,1.11-2.91,1.34-4.69-2.53-4.92C261.75,19,261.57,18.74,260.83,18.23Z"/><path class="cls-1" d="M223.8,19.25c2.82-.71,5.62-1.47,8.46-2,.25-.05,1.08,1.26,1.09,1.95.09,6.11.06,12.22.06,18.34,0,5.58,0,5.58,5.2,8.23H224l-.17-.3a5.8,5.8,0,0,1,1.57-.63,3,3,0,0,0,3.08-3.15c.13-5.87.22-11.75.15-17.63C228.58,21.78,227.93,21.39,223.8,19.25Z"/><path class="cls-1" d="M230.23,7.92c-2.16,0-3.65-1.26-3.68-3s1.91-3.5,4.17-3.43a3,3,0,0,1,3.14,3.24C233.9,6.77,232.58,8,230.23,7.92Z"/></g></g></svg>