<svg xmlns="http://www.w3.org/2000/svg" viewBox="0 0 102.06 124.74" width="102.06" height="124.74"><defs><style>.cls-1{fill:#4e4f87;}</style></defs><g id="Layer_2" data-name="Layer 2"><g id="Layer_1-2" data-name="Layer 1"><g id="Layer_2-2" data-name="Layer 2"><g id="Layer_3" data-name="Layer 3"><path class="cls-1" d="M.63,63.77H6.87v54.35H35v6.39H.63Z"/><path class="cls-1" d="M101.54,20.33V81.57H95.25V26.79H75.51V20.33Z"/><path class="cls-1" d="M54.14,20.11a15.91,15.91,0,1,1,.23,31.82H54a15.91,15.91,0,1,1,.11-31.82Zm.1,5.84A9.66,9.66,0,0,0,44.32,36c0,5.86,4.06,10,9.68,10.09s9.94-4.2,10-10.1A9.57,9.57,0,0,0,54.24,26Z"/><path class="cls-1" d="M96.9,108.16c4,1.81,5.61,4.86,5.06,9a8.09,8.09,0,0,1-7.21,7.14c-5.29.43-10.64.11-16.09.11v-30c4.54,0,9.07-.55,13.41.13C98.74,95.6,101,103,96.9,108.16Zm-12.26,11c2.67,0,5.15.08,7.63,0a3.48,3.48,0,0,0,3.63-3.32s0-.06,0-.08c.14-2.16-1-3.8-3.2-4-2.64-.23-5.31,0-8.07,0Zm-.12-12.7h4.29a6.49,6.49,0,0,0,1.31-.2,3.27,3.27,0,0,0,2.58-3.82c0-.15-.07-.29-.11-.43-.73-2.77-3.15-2.73-7-2.47-2,.14-.83,2-1,3.07a23.8,23.8,0,0,0-.07,3.87Z"/><path class="cls-1" d="M25.19,41.09l4.43,3.13c-2,5.17-9.19,8.63-15.71,7.62a15.92,15.92,0,0,1-2.39-31.09c7.3-2.11,14.8.76,18.22,7.07l-4.62,3.25c-2.2-3.23-5-5.26-9-5.12a9.49,9.49,0,0,0-6.84,2.92c-3.86,4-3.66,11.15.4,14.83C14.17,47.82,20.17,46.87,25.19,41.09Z"/><path class="cls-1" d="M41.88,124.66c2.66-6.08,5.17-11.84,7.68-17.59,1.71-3.9,3.36-7.83,5.13-11.7a2.29,2.29,0,0,1,1.62-1.14,2,2,0,0,1,1.42,1.11Q64,109.47,70.07,123.65a8.17,8.17,0,0,1,.27,1,46.43,46.43,0,0,1-5.78-.09c-.58-.08-1.23-1.17-1.47-1.91a2.5,2.5,0,0,0-2.92-2h0c-2.86.14-5.74.1-8.6,0-1.15,0-1.83.3-2,1.42-.42,2.14-1.7,2.87-3.82,2.56A26.32,26.32,0,0,0,41.88,124.66Zm14.32-19c-1.41,3.62-2.61,6.72-3.86,9.94H60c-1.23-3.25-2.43-6.35-3.8-9.93Z"/><path class="cls-1" d="M27,2.21V4.49h6c.53,1.18.39,1.78-1,1.75H27.11V8.56H35v1.72H25.25V.54h9.64c.4,1.18.08,1.72-1.26,1.69C31.47,2.17,29.32,2.21,27,2.21Z"/><path class="cls-1" d="M13.09,10.33V.55A40.22,40.22,0,0,1,19,.6c2.65.4,4.11,2.56,3.93,5.24a4.75,4.75,0,0,1-4.61,4.47C16.62,10.41,15,10.33,13.09,10.33Zm1.85-1.74C17,8.44,19.3,9.29,20.46,7a4.18,4.18,0,0,0-.14-3.51c-1.24-2-3.41-1.3-5.38-1.26Z"/><path class="cls-1" d="M42.09,10.76A5.38,5.38,0,1,1,41.63,0h.47a5.43,5.43,0,0,1,5.42,5.43v.07a5.34,5.34,0,0,1-5.41,5.25Zm3.5-5.31A3.49,3.49,0,0,0,42.16,1.9h0a3.55,3.55,0,0,0-3.6,3.44,3.54,3.54,0,0,0,7.07.11Z"/><path class="cls-1" d="M10.43.51c-.26,3.11-2.84.85-3.95,2.13V8.16c1.11,1.26,3.63-.86,4,2.2H.75C.32,9.14.56,8.54,1.84,8.6H4.41v-6C3.34,1.38.71,3.61.52.51Z"/></g></g></g></g></svg>