<svg xmlns="http://www.w3.org/2000/svg" viewBox="0 0 328 90.88" width="328" height="90.88"><defs><style>.cls-1{fill:#41427a;}</style></defs><g id="Layer_2" data-name="Layer 2"><g id="Layer_1-2" data-name="Layer 1"><path class="cls-1" d="M217.4,1c-6.3,2.5-7.1,11.4-1.5,15.7,2.4,1.9,7.5,1.5,10.4-.7a8.68,8.68,0,0,0-1.4-14.5C221.8-.2,220.5-.3,217.4,1Z"/><path class="cls-1" d="M244,44.5V89h14V0H244Z"/><path class="cls-1" d="M12,20.5V30H0V42H12V89H26V42H37V30H26.1l-.3-9.3-.3-9.2-6.7-.3L12,10.9Z"/><path class="cls-1" d="M178,20.5V30H165.9l.3,5.7.3,5.8,5.8.3,5.7.3V89h14V42h22V89h14V30H192.1l-.3-9.3-.3-9.2-6.7-.3-6.8-.3Z"/><path class="cls-1" d="M63.8,29.3c-14.1,4-21.6,16.3-20.6,33.5.8,13.5,7.8,23,19.4,26.7C75.7,93.6,92.3,88,97.7,77.7c.8-1.6,1.3-3,1.1-3.2a46,46,0,0,0-5.6-2.4L87.9,70l-2.7,3.1c-4.9,5.9-13.1,7.5-20.9,4a12.63,12.63,0,0,1-7.8-9.4L55.8,65H102V61c0-5.4-1.9-13.8-4-18-2.5-4.7-8.7-10.5-13.3-12.5C79.4,28.3,69.5,27.7,63.8,29.3ZM79.9,41.8c3.7,2,7.1,7.2,7.1,10.9C87,55,86.9,55,71.5,55,63,55,56,54.8,56,54.6c0-1.7,2.7-7.6,4.4-9.5C64.9,40,73.8,38.5,79.9,41.8Z"/><path class="cls-1" d="M290.8,29.3a29.06,29.06,0,0,0-20,20.2c-1.8,6.6-1.3,17.3,1.2,23.7,5.9,15.7,25.7,22.4,41.8,14.1,4.9-2.4,12.2-9.8,12.2-12.1,0-.4-2.5-1.7-5.6-2.9l-5.6-2.2-2.6,3.1c-6.9,8.2-21.1,7.6-26.9-1.1-1.3-1.9-2.3-4.2-2.3-5.2,0-1.8,1.3-1.9,22.5-1.9H328V58.7c0-10-2.3-16.2-8.3-22.1A29.93,29.93,0,0,0,290.8,29.3Zm16,12.7c3.7,2.3,7.2,7.5,7.2,10.7,0,2.3-.1,2.3-15.5,2.3-11.3,0-15.5-.3-15.5-1.2,0-3.3,4.5-10,7.9-11.8C295.7,39.5,302.6,39.5,306.8,42Z"/><path class="cls-1" d="M104.8,32.7c1,1.6,5.8,8.4,10.6,15.2l8.8,12.3-4.1,5.7c-2.2,3.1-6.8,9.5-10.1,14.3L103.9,89h15.8l5.9-9.5c3.2-5.2,6.1-9.5,6.4-9.5s3.2,4.3,6.5,9.5l6,9.5h8.3c6.4,0,8.1-.3,7.6-1.3-.5-.6-5-7.1-10.1-14.4L141,60.1l10.5-14.8,10.4-14.8-7.1-.3a46.4,46.4,0,0,0-8.2.1c-.7.3-3.8,4.8-7.1,10.1S133.3,50,133,50s-3.4-4.6-6.9-10l-6.4-10H102.9Z"/></g></g></svg>