<svg xmlns="http://www.w3.org/2000/svg" xmlns:xlink="http://www.w3.org/1999/xlink" x="0px" y="0px"
	 viewBox="0 0 207.4 73" width="207.39" height="73.01" style="enable-background:new 0 0 207.4 73;" xml:space="preserve">
<style type="text/css">
	.st0{fill:#4E4F87;}
</style>
<path class="st0" d="M67.8,73V54.2H70l0.1,1.2c1.4-1.1,3.2-1.6,5-1.4c1.7,0.3,3.3,1.2,4.3,2.7c1.6,2.3,1.4,5.5-0.4,7.6
	c-2.2,2.5-4.8,2.8-8.8,0.8v8L67.8,73z M78.1,60.2c0-2.2-1.8-4-4-4s-4,1.8-4,4s1.8,4,4,4S78.1,62.4,78.1,60.2z"/>
<path class="st0" d="M0,54.2h1.8v-4.6H4v4.5h3.7v2.2H4.1v2.2c0,1.1,0,2.2,0,3.3c-0.1,1,0.6,2,1.7,2.1c0.1,0,0.3,0,0.4,0h1.7l0.6,2.1
	c-1.2,0.1-2.3,0.1-3.5,0c-1.8-0.3-3.2-1.9-3.2-3.8c0-1.9,0-3.9,0-5.9L0,56.4V54.2z"/>
<path class="st0" d="M138.4,45.1V1.3c0.3,0,0.6,0,0.9,0c4.9,0,9.8,0,14.6,0c5.5-0.2,10.2,3.8,11,9.2c0.4,2.2,0,4.1-1.3,6.8
	c1.6,1.2,3.1,2.5,4.6,3.9c3.7,3.9,4.7,9.5,2.7,14.5c-2,5.4-6.1,8.5-11.8,9.3c-0.7,0.1-1.5,0.1-2.2,0.1c-5.8,0-11.5,0-17.3,0
	L138.4,45.1z M144.8,38.8h12.4c4.4-0.1,8-3.7,8.1-8.1c0-4.5-3.6-8.1-8.1-8.1h-12.4V38.8z M144.8,16.3c3.3,0,6.5,0.1,9.7,0
	c2.3-0.1,4.1-2.1,4-4.4c-0.1-2.4-2.1-4.2-4.4-4.2c-1.6,0-3.2,0-4.9,0h-4.4L144.8,16.3z"/>
<path class="st0" d="M46.9,1.3c2.1,0,4.2,0,6.3,0c0.3,0,0.6,0.4,0.8,0.7c4.5,6.6,9,13.3,13.5,19.9l8,11.9V1.3H82v43.8
	c-1.6,0-3.2-0.1-4.8,0c-1.1,0.2-2.2-0.4-2.8-1.4c-6.8-10-13.6-20-20.4-30.1l-0.7-1v32.4h-6.5V1.3z"/>
<path class="st0" d="M1.7,1.3H8v18.6c0.4-0.4,0.7-0.6,0.9-0.8c6.2-5.8,12.4-11.6,18.6-17.4c0.2-0.2,0.6-0.4,0.9-0.4
	c2.8,0,5.5,0,8.3,0c0.1,0,0.3,0.1,0.4,0.1L21.6,16l20.7,29c-0.4,0-0.6,0.1-0.8,0.1c-2.2,0-4.4,0-6.5,0c-0.5,0-1-0.2-1.2-0.6
	c-5.5-7.7-11-15.3-16.5-23c-0.2-0.3-0.4-0.5-0.6-0.8l-5.6,5.3c-0.8,0.8-1.6,1.6-2.4,2.3C8.2,28.5,8,29,8,29.5c0,4.8,0,9.7,0,14.6v1
	H1.7V1.3z"/>
<path class="st0" d="M130.9,12.6c4.2,7.4,3.8,19.8-5.7,27.8c-9.6,8.2-24.1,7-32.3-2.6s-7-24.1,2.6-32.3c7.3-6.2,17.7-7.2,26.1-2.5
	c-1.4,1.5-2.8,3-4.3,4.4c-0.3,0.2-0.7,0.2-1,0C112,5.7,107.1,6,103,8.2c-8.2,4.1-11.5,14-7.4,22.2c4.1,8.2,14,11.5,22.2,7.4
	c7.3-3.7,10.8-12.1,8.3-19.9c-0.2-0.4-0.1-0.9,0.3-1.1C127.9,15.3,129.4,13.9,130.9,12.6z"/>
<path class="st0" d="M174.3,38l4.1-4.7c1.6,1.1,3,2.2,4.6,3.1c3,1.9,6.5,2.8,10,2.7c2.1,0,4.2-0.8,5.8-2.1c2.3-1.8,2.8-5.1,1-7.4
	c-0.5-0.7-1.2-1.2-1.9-1.6c-2.3-1.3-4.8-1.6-7.3-2.2c-2.5-0.6-4.9-1.3-7.4-2.1c-5.8-2.1-8.7-8.4-6.7-14.1c0.3-0.9,0.7-1.7,1.3-2.5
	c2.1-3.1,5.4-5.2,9.1-5.8c6.1-1.2,11.5,0.5,16.5,3.9c0.8,0.6,1.6,1.2,2.5,1.8l-4.1,5c-0.4-0.3-0.7-0.6-1.1-0.9
	c-3.1-2.4-6.5-3.9-10.6-3.8c-2.1,0-4,0.7-5.6,1.9c-2.2,1.5-2.6,4.5-1.1,6.7c0.5,0.6,1.1,1.2,1.8,1.5c2.1,1.2,4.5,1.6,6.9,2.2
	c2.6,0.5,5.1,1.2,7.5,2.1c3.8,1.2,6.6,4.3,7.5,8.1c1.1,4.8-0.7,9.7-4.7,12.6c-4.3,3.1-9.1,3.7-14.2,2.7c-5.1-1-9.8-3.4-13.6-6.8
	C174.4,38.2,174.4,38.1,174.3,38z"/>
<path class="st0" d="M125.1,4l4.6,4.4l-12.8,13.4l-4.6-4.4L125.1,4z"/>
<path class="st0" d="M162.1,66.1H160l-0.1-1.2c-2.6,2.2-6.5,2-8.7-0.6c-0.1-0.1-0.2-0.3-0.3-0.4c-1.8-2.4-1.6-5.8,0.4-8
	c2.2-2.4,5.1-2.6,8.6-0.6l0.1-1.1h2.2L162.1,66.1z M159.9,60.2c0-2.2-1.8-4-4-4s-4,1.8-4,4c0,2.2,1.8,4,3.9,4
	C158.1,64.2,159.9,62.4,159.9,60.2L159.9,60.2z"/>
<path class="st0" d="M193.2,60.1c0,3.5-2.7,6.4-6.2,6.4c-3.5,0-6.4-2.7-6.4-6.2s2.7-6.4,6.2-6.4c0,0,0,0,0,0
	C190.3,53.8,193.1,56.6,193.2,60.1C193.2,60.1,193.2,60.1,193.2,60.1z M182.9,60.1c0,2.2,1.8,4,4,4l0,0c2.2,0,4-1.8,4-4s-1.8-4-4-4
	C184.7,56.1,182.9,57.9,182.9,60.1C182.9,60.1,182.9,60.1,182.9,60.1L182.9,60.1z"/>
<path class="st0" d="M135.8,60.2c0,3.5-2.8,6.3-6.3,6.3c-3.5,0-6.3-2.8-6.3-6.3c0-3.5,2.8-6.3,6.3-6.3
	C133,53.9,135.8,56.6,135.8,60.2C135.8,60.1,135.8,60.2,135.8,60.2z M133.5,60.1c0-2.2-1.8-4-4-4s-4,1.8-4,4s1.8,4,4,4
	S133.5,62.3,133.5,60.1z"/>
<path class="st0" d="M195.5,54.2h2.2l0.1,0.7c1.2-0.4,2.4-0.7,3.6-0.9c2.9-0.1,5.3,2,5.6,4.9c0.2,2.2,0.1,4.5,0.1,6.7
	c0,0.2,0,0.4-0.1,0.6h-2.2c0-2.1,0-4.1,0-6.1c0-0.8-0.2-1.5-0.5-2.2c-0.8-1.4-2.4-2-3.9-1.6c-1.5,0.4-2.5,1.8-2.6,3.3
	c0,1.8,0,3.7,0,5.5v1h-2.2L195.5,54.2z"/>
<path class="st0" d="M35.7,66.1h-2.2V54.2h2.2l0.1,1c1.1-0.8,2.5-1.2,3.8-1.2c2.8,0.1,5.1,2.2,5.4,5c0.1,2.3,0,4.7,0,7.1h-2.2
	c0-2,0.1-4.1,0-6.1c0-0.8-0.3-1.7-0.7-2.4c-0.8-1.3-2.4-1.8-3.8-1.3c-1.5,0.5-2.6,1.9-2.5,3.5C35.7,61.9,35.7,64,35.7,66.1z"/>
<path class="st0" d="M112,66.1h-2.2V54.2h2.2l0.1,0.7c1.2-0.4,2.4-0.7,3.6-0.9c2.9-0.1,5.4,2.1,5.7,5c0,0.3,0,0.5,0,0.8v6.4H119
	c0-2.2,0-4.3,0-6.4c0-1.4-0.8-2.7-2.2-3.2c-1.2-0.6-2.6-0.3-3.6,0.6c-0.8,0.7-1.2,1.7-1.2,2.7c0,1.8,0,3.6,0,5.5
	C112,65.5,112,65.8,112,66.1z"/>
<path class="st0" d="M95.6,54.2h2.2l0.1,1c0.2-0.1,0.4-0.2,0.6-0.3c2.6-1.7,6.1-0.9,7.8,1.8c0.5,0.8,0.8,1.7,0.9,2.7
	c0.2,2.2,0,4.5,0,6.8h-2.3c0-2,0-3.9,0-5.9c0-0.5,0-0.9-0.1-1.4c-0.4-1.7-2-2.8-3.7-2.6c-1.8,0.2-3.1,1.7-3.1,3.5c0,2.1,0,4.3,0,6.5
	h-2.3V54.2z"/>
<path class="st0" d="M53.9,54.2h2.3c0,2.3,0,4.5,0,6.8c0,1.6,1.2,3,2.8,3.2c1.6,0.2,3.1-0.8,3.6-2.4c0.1-0.4,0.1-0.9,0.1-1.3
	c0-2.1,0-4.2,0-6.3H65c0,2.6,0.2,5.1,0,7.7c-0.2,2.7-3,4.8-5.8,4.6c-2.9-0.1-5.2-2.4-5.3-5.3C53.9,58.8,53.9,56.5,53.9,54.2z"/>
<path class="st0" d="M10.5,54.2h2.3V55c0,1.9,0,3.9,0,5.8c0,1.8,1.5,3.3,3.3,3.3s3.3-1.5,3.3-3.3c0-2.2,0-4.4,0-6.6h2.3v1.5
	c0,1.8,0,3.6,0,5.4c0,2.9-2.3,5.3-5.3,5.4c-2.9,0.2-5.5-1.9-5.8-4.8C10.3,59.2,10.5,56.7,10.5,54.2z"/>
<path class="st0" d="M166.2,49.6h2.3v4.6h3.7v2.2h-3.6c0,2.1-0.1,4.1,0,6c0.1,1,0.9,1.7,1.9,1.7h1.9l0.6,2.1c-1.1,0.1-2.3,0.1-3.4,0
	c-1.9-0.3-3.3-2-3.3-3.9c0-1.9,0-3.8,0-5.8l-1.7-0.1v-2.1h1.7L166.2,49.6z"/>
<path class="st0" d="M142.6,63c1.1-2.7,2.2-5.3,3.2-7.9c0.3-0.8,0.7-1.2,1.6-1c0.4,0,0.9,0,1.3,0c-0.3,0.8-0.6,1.5-0.9,2.2
	c-1.2,3-2.5,6-3.7,9c-0.1,0.5-0.6,0.9-1.1,0.8c-1.7,0-1.7,0-2.3-1.5c-1.3-3.2-2.6-6.4-3.9-9.5c-0.1-0.3-0.2-0.5-0.4-1
	c0.7,0,1.4,0,2.1,0c0.2,0,0.5,0.4,0.6,0.6c1,2.4,2,4.9,3,7.3C142.3,62.4,142.4,62.6,142.6,63z"/>
<path class="st0" d="M27.1,66.1h-2.2V54.2h2.2l0.1,1c1.3-0.8,2.8-1.2,4.3-1.2c-0.1,0.6-0.3,1.2-0.5,1.8c-0.1,0.2-0.4,0.4-0.6,0.5
	c-2,0.2-3.5,2-3.3,4C27.1,62.2,27.1,64.1,27.1,66.1z"/>
<path class="st0" d="M89.4,54.2h2.2v11.9h-2.2V54.2z"/>
<path class="st0" d="M175.4,54.2h2.2v11.9h-2.2V54.2z"/>
<path class="st0" d="M92,50.7c0,0.8-0.7,1.5-1.5,1.5c0,0,0,0,0,0c-0.8,0-1.5-0.6-1.5-1.4c0,0,0-0.1,0-0.1c0-0.8,0.6-1.5,1.4-1.5
	c0,0,0,0,0.1,0C91.3,49.2,92,49.9,92,50.7z"/>
<path class="st0" d="M176.5,52.2c-0.8,0-1.5-0.6-1.5-1.4c0,0,0-0.1,0-0.1c0-0.8,0.7-1.5,1.5-1.5s1.5,0.7,1.5,1.5
	C178,51.5,177.4,52.2,176.5,52.2C176.6,52.2,176.5,52.2,176.5,52.2z"/>
</svg>
