<svg xmlns="http://www.w3.org/2000/svg" xmlns:xlink="http://www.w3.org/1999/xlink" viewBox="0 0 139.98 85.06"><defs><linearGradient id="linear-gradient" x1="0.89" y1="5.8" x2="116.52" y2="206.07" gradientUnits="userSpaceOnUse"><stop offset="0" stop-color="#83bcff"/><stop offset="1" stop-color="#733fff"/></linearGradient><linearGradient id="linear-gradient-2" x1="15.48" y1="-18.45" x2="97.94" y2="124.38" xlink:href="#linear-gradient"/><linearGradient id="linear-gradient-3" x1="38.32" y1="-55.39" x2="117.57" y2="81.88" xlink:href="#linear-gradient"/><linearGradient id="linear-gradient-4" x1="48.85" y1="-105.34" x2="137.08" y2="47.48" xlink:href="#linear-gradient"/></defs><g id="Layer_2" data-name="Layer 2"><g id="Layer_3" data-name="Layer 3"><path fill="url(#linear-gradient)" d="M6.78,42.72V7.92L0,9.48V4.8L9.3.72h4.08v42Z"/><path fill="url(#linear-gradient-2)" d="M38.7,43.44a17.32,17.32,0,0,1-9.81-2.73,17.46,17.46,0,0,1-6.3-7.62A27.59,27.59,0,0,1,20.4,21.72a27.59,27.59,0,0,1,2.19-11.37,17.46,17.46,0,0,1,6.3-7.62A17.32,17.32,0,0,1,38.7,0a17.18,17.18,0,0,1,9.78,2.73,17.54,17.54,0,0,1,6.27,7.62,27.59,27.59,0,0,1,2.19,11.37,27.59,27.59,0,0,1-2.19,11.37,17.54,17.54,0,0,1-6.27,7.62A17.18,17.18,0,0,1,38.7,43.44Zm0-5.7a10.17,10.17,0,0,0,6.09-1.92A12.51,12.51,0,0,0,49,30.3a22.24,22.24,0,0,0,1.5-8.58A22.24,22.24,0,0,0,49,13.14a12.51,12.51,0,0,0-4.17-5.52,10.67,10.67,0,0,0-12.21,0,12.61,12.61,0,0,0-4.14,5.52,22.24,22.24,0,0,0-1.5,8.58,22.24,22.24,0,0,0,1.5,8.58,12.61,12.61,0,0,0,4.14,5.52A10.13,10.13,0,0,0,38.7,37.74Z"/><path fill="url(#linear-gradient-3)" d="M82.26,43.44a19.58,19.58,0,0,1-10.38-2.7A18.31,18.31,0,0,1,65,33.18a24.8,24.8,0,0,1-2.46-11.34A24.54,24.54,0,0,1,65,10.5a18.79,18.79,0,0,1,7.17-7.71A21,21,0,0,1,83.22,0a19.91,19.91,0,0,1,12,3.48,15.93,15.93,0,0,1,6.24,9.6h-7.2A9.26,9.26,0,0,0,90.48,7.8a12.64,12.64,0,0,0-7.26-1.92q-6.6,0-10.38,4.26T69.06,21.9q0,7.5,3.72,11.7a12.57,12.57,0,0,0,9.9,4.2q6.24,0,9.39-3.54a15.94,15.94,0,0,0,3.69-9.42H84.36V19.92h17.82v22.8H96.36l-.54-6.18a15,15,0,0,1-5.28,5.1A16.71,16.71,0,0,1,82.26,43.44Z"/><path fill="url(#linear-gradient-4)" d="M109.92,42.72V.72h15.84q6.54,0,9.9,3.06A10,10,0,0,1,139,11.46a9.12,9.12,0,0,1-2.16,6.39,10.8,10.8,0,0,1-5.22,3.21A10.32,10.32,0,0,1,135.93,23a10.19,10.19,0,0,1,3,3.6A10.32,10.32,0,0,1,140,31.26a11,11,0,0,1-1.59,5.85,10.88,10.88,0,0,1-4.65,4.11,16.94,16.94,0,0,1-7.5,1.5Zm6.36-24H125A8.13,8.13,0,0,0,130.56,17a6,6,0,0,0,1.92-4.71,6.05,6.05,0,0,0-1.89-4.68q-1.89-1.74-5.73-1.74h-8.58Zm0,18.78h9.12a9,9,0,0,0,6-1.8,6.24,6.24,0,0,0,2.13-5,6.39,6.39,0,0,0-2.22-5.13,9,9,0,0,0-6-1.89h-9Z"/><path fill="#fff" d="M.27,84.72V65.12H12.2v1.93H2.62v6.89h8.15v1.9H2.62v8.88Z"/><path fill="#fff" d="M16.51,67.75a1.57,1.57,0,0,1-1.62-1.62A1.49,1.49,0,0,1,15.35,65a1.71,1.71,0,0,1,2.31,0,1.47,1.47,0,0,1,.48,1.12,1.55,1.55,0,0,1-.48,1.16A1.58,1.58,0,0,1,16.51,67.75Zm-1.17,17V70.83h2.35V84.72Z"/><path fill="#fff" d="M21.78,84.72V64.56h2.35V84.72Z"/><path fill="#fff" d="M34.24,85.06a6.87,6.87,0,0,1-3.53-.91,6.5,6.5,0,0,1-2.42-2.54,7.88,7.88,0,0,1-.89-3.83A8.07,8.07,0,0,1,28.27,74a6.3,6.3,0,0,1,2.42-2.54,7,7,0,0,1,3.6-.91,6.46,6.46,0,0,1,3.49.91A6.08,6.08,0,0,1,40,73.8,6.76,6.76,0,0,1,40.82,77c0,.21,0,.41,0,.62s0,.44,0,.7H29.73A5.37,5.37,0,0,0,30.47,81a4.34,4.34,0,0,0,3.77,2.12,4.24,4.24,0,0,0,2.43-.67,3.85,3.85,0,0,0,1.43-1.82h2.32a6.11,6.11,0,0,1-6.18,4.48Zm0-12.58a4.68,4.68,0,0,0-3,1,4.12,4.12,0,0,0-1.49,3h8.73a3.93,3.93,0,0,0-1.29-2.94A4.31,4.31,0,0,0,34.24,72.48Z"/><path fill="#fff" d="M56.66,85.06a6.62,6.62,0,0,1-4.14-1.26,4.89,4.89,0,0,1-1.93-3.42H53a3.29,3.29,0,0,0,1.16,1.89,3.78,3.78,0,0,0,2.53.8,3.22,3.22,0,0,0,2.19-.63,2,2,0,0,0,.7-1.5,1.67,1.67,0,0,0-.91-1.68,12.44,12.44,0,0,0-2.57-.76,14.82,14.82,0,0,1-2.24-.64A5.13,5.13,0,0,1,52,76.67a2.75,2.75,0,0,1-.76-2,3.73,3.73,0,0,1,1.36-3,5.45,5.45,0,0,1,3.68-1.16,5.69,5.69,0,0,1,3.63,1.1,4.44,4.44,0,0,1,1.64,3.15H59.21a2.37,2.37,0,0,0-.91-1.66,3.2,3.2,0,0,0-2.06-.61A3,3,0,0,0,54.3,73a1.68,1.68,0,0,0-.69,1.4,1.46,1.46,0,0,0,.88,1.31,9.27,9.27,0,0,0,2.4.81,21.89,21.89,0,0,1,2.45.69,4.62,4.62,0,0,1,1.9,1.2A3.27,3.27,0,0,1,62,80.74a3.8,3.8,0,0,1-1.41,3.1A5.87,5.87,0,0,1,56.66,85.06Z"/><path fill="#fff" d="M65.34,84.72V64.56H67.7v8.65a5,5,0,0,1,2-2,5.66,5.66,0,0,1,2.8-.71A5.18,5.18,0,0,1,76.35,72,6.41,6.41,0,0,1,77.8,76.6v8.12H75.48V76.85q0-4.34-3.5-4.34a4.06,4.06,0,0,0-3,1.3,5.21,5.21,0,0,0-1.23,3.71v7.2Z"/><path fill="#fff" d="M86,85.06a6.28,6.28,0,0,1-2.88-.59,4,4,0,0,1-1.71-1.57,4.14,4.14,0,0,1-.56-2.13,3.76,3.76,0,0,1,1.62-3.27,7.51,7.51,0,0,1,4.43-1.15h3.75v-.17a3.74,3.74,0,0,0-.95-2.76,3.52,3.52,0,0,0-2.55-.94,4,4,0,0,0-2.37.69,3,3,0,0,0-1.24,2H81.11a4.42,4.42,0,0,1,1-2.55A5.78,5.78,0,0,1,84.33,71a7.31,7.31,0,0,1,2.8-.54A5.25,5.25,0,0,1,93,76.18v8.54h-2.1l-.14-2.49a5.56,5.56,0,0,1-1.72,2A5.07,5.07,0,0,1,86,85.06Zm.36-2a3.86,3.86,0,0,0,2.31-.7,4.44,4.44,0,0,0,1.47-1.82,5.62,5.62,0,0,0,.51-2.35v0H87.07a4.62,4.62,0,0,0-2.92.71,2.24,2.24,0,0,0-.86,1.78,2.16,2.16,0,0,0,.8,1.75A3.43,3.43,0,0,0,86.34,83.07Z"/><path fill="#fff" d="M96.51,84.72V70.83h2.12l.2,2.66a5,5,0,0,1,2-2.18A6.1,6.1,0,0,1,104,70.5V73h-.64a5.78,5.78,0,0,0-2.27.43,3.45,3.45,0,0,0-1.65,1.47,5.52,5.52,0,0,0-.62,2.86v7Z"/><path fill="#fff" d="M112.38,85.06a6.83,6.83,0,0,1-3.52-.91,6.53,6.53,0,0,1-2.43-2.54,7.88,7.88,0,0,1-.88-3.83,8.07,8.07,0,0,1,.87-3.83,6.24,6.24,0,0,1,2.42-2.54,7,7,0,0,1,3.6-.91,6.42,6.42,0,0,1,3.48.91,6,6,0,0,1,2.26,2.39A6.75,6.75,0,0,1,119,77c0,.21,0,.41,0,.62s0,.44,0,.7H107.88a5.37,5.37,0,0,0,.74,2.64,4.34,4.34,0,0,0,3.76,2.12,4.28,4.28,0,0,0,2.44-.67,3.91,3.91,0,0,0,1.43-1.82h2.32a6.11,6.11,0,0,1-6.19,4.48Zm0-12.58a4.65,4.65,0,0,0-3,1,4.1,4.1,0,0,0-1.5,3h8.74a4,4,0,0,0-1.29-2.94A4.32,4.32,0,0,0,112.38,72.48Z"/><path fill="#fff" d="M127.39,85.06a6.62,6.62,0,0,1-4.14-1.26,4.94,4.94,0,0,1-1.94-3.42h2.41a3.34,3.34,0,0,0,1.16,1.89,3.81,3.81,0,0,0,2.54.8,3.17,3.17,0,0,0,2.18-.63,1.94,1.94,0,0,0,.7-1.5,1.66,1.66,0,0,0-.91-1.68,12.32,12.32,0,0,0-2.56-.76,14.49,14.49,0,0,1-2.24-.64,5.17,5.17,0,0,1-1.88-1.19,2.78,2.78,0,0,1-.75-2,3.73,3.73,0,0,1,1.36-3A5.43,5.43,0,0,1,127,70.5a5.68,5.68,0,0,1,3.62,1.1,4.4,4.4,0,0,1,1.64,3.15h-2.32a2.44,2.44,0,0,0-.91-1.66,3.22,3.22,0,0,0-2.06-.61,3.1,3.1,0,0,0-2,.54,1.69,1.69,0,0,0-.68,1.4,1.44,1.44,0,0,0,.88,1.31,9.32,9.32,0,0,0,2.39.81,21.31,21.31,0,0,1,2.45.69,4.66,4.66,0,0,1,1.91,1.2,3.32,3.32,0,0,1,.74,2.31,3.8,3.8,0,0,1-1.41,3.1A5.9,5.9,0,0,1,127.39,85.06Z"/></g></g></svg>