<svg xmlns="http://www.w3.org/2000/svg" xmlns:xlink="http://www.w3.org/1999/xlink" viewBox="0 0 252.96 85.54"><defs><linearGradient id="linear-gradient" x1="13.22" y1="12.86" x2="172.85" y2="289.35" gradientUnits="userSpaceOnUse"><stop offset="0" stop-color="#83bcff"/><stop offset="1" stop-color="#733fff"/></linearGradient><linearGradient id="linear-gradient-2" x1="31.6" y1="-21.23" x2="162.98" y2="206.32" xlink:href="#linear-gradient"/><linearGradient id="linear-gradient-3" x1="50.39" y1="-61.63" x2="181.77" y2="165.91" xlink:href="#linear-gradient"/><linearGradient id="linear-gradient-4" x1="49.57" y1="-122.41" x2="208.38" y2="152.67" xlink:href="#linear-gradient"/><linearGradient id="linear-gradient-5" x1="67.45" y1="-147.37" x2="214.06" y2="106.57" xlink:href="#linear-gradient"/><linearGradient id="linear-gradient-6" x1="93.89" y1="-164.63" x2="228.73" y2="68.91" xlink:href="#linear-gradient"/><linearGradient id="linear-gradient-7" x1="139.05" y1="-147.12" x2="242.74" y2="32.48" xlink:href="#linear-gradient"/></defs><g id="Layer_2" data-name="Layer 2"><g id="Layer_3" data-name="Layer 3"><path fill="url(#linear-gradient)" d="M17.58,43.92A17.26,17.26,0,0,1,9.9,42.33,12.94,12.94,0,0,1,4.77,38a14.06,14.06,0,0,1-2.31-6.33H8.7a8.3,8.3,0,0,0,3,4.95,9.11,9.11,0,0,0,5.94,2,8,8,0,0,0,4.56-1.29,8.82,8.82,0,0,0,3-3.45,10.72,10.72,0,0,0,1.08-4.86,9.53,9.53,0,0,0-2.4-6.81,8,8,0,0,0-6.06-2.55A9.45,9.45,0,0,0,12.48,21a8.8,8.8,0,0,0-3.24,3.69H3.18L6.78,1.2H29.46V6.78H11.58L9.42,18a10.6,10.6,0,0,1,3.81-2.61,13.71,13.71,0,0,1,5.49-1.05A13.33,13.33,0,0,1,26,16.29a13,13,0,0,1,4.71,5.25,16.14,16.14,0,0,1,1.65,7.32,16.11,16.11,0,0,1-1.8,7.62,13.67,13.67,0,0,1-5.13,5.43A15,15,0,0,1,17.58,43.92Z"/><path fill="url(#linear-gradient-2)" d="M56.7,43.92A16.75,16.75,0,0,1,40.59,33.57,27.59,27.59,0,0,1,38.4,22.2a27.59,27.59,0,0,1,2.19-11.37A16.75,16.75,0,0,1,56.7.48a17.18,17.18,0,0,1,9.78,2.73,17.54,17.54,0,0,1,6.27,7.62A27.59,27.59,0,0,1,74.94,22.2a27.59,27.59,0,0,1-2.19,11.37,17.54,17.54,0,0,1-6.27,7.62A17.18,17.18,0,0,1,56.7,43.92Zm0-5.7a10.17,10.17,0,0,0,6.09-1.92A12.51,12.51,0,0,0,67,30.78a22.24,22.24,0,0,0,1.5-8.58A22.24,22.24,0,0,0,67,13.62,12.51,12.51,0,0,0,62.79,8.1a10.67,10.67,0,0,0-12.21,0,12.61,12.61,0,0,0-4.14,5.52,22.24,22.24,0,0,0-1.5,8.58,22.24,22.24,0,0,0,1.5,8.58,12.61,12.61,0,0,0,4.14,5.52A10.13,10.13,0,0,0,56.7,38.22Z"/><path fill="url(#linear-gradient-3)" d="M98.82,43.92A16.75,16.75,0,0,1,82.71,33.57,27.59,27.59,0,0,1,80.52,22.2a27.59,27.59,0,0,1,2.19-11.37A16.75,16.75,0,0,1,98.82.48a17.18,17.18,0,0,1,9.78,2.73,17.54,17.54,0,0,1,6.27,7.62,27.59,27.59,0,0,1,2.19,11.37,27.59,27.59,0,0,1-2.19,11.37,17.54,17.54,0,0,1-6.27,7.62A17.18,17.18,0,0,1,98.82,43.92Zm0-5.7a10.17,10.17,0,0,0,6.09-1.92,12.51,12.51,0,0,0,4.17-5.52,22.24,22.24,0,0,0,1.5-8.58,22.24,22.24,0,0,0-1.5-8.58,12.51,12.51,0,0,0-4.17-5.52,10.67,10.67,0,0,0-12.21,0,12.61,12.61,0,0,0-4.14,5.52,22.24,22.24,0,0,0-1.5,8.58,22.24,22.24,0,0,0,1.5,8.58A12.61,12.61,0,0,0,92.7,36.3,10.13,10.13,0,0,0,98.82,38.22Z"/><path fill="url(#linear-gradient-4)" d="M123.9,43.2V0h6.36V25.74l11.4-12.3h7.62l-12.66,13.5L151.14,43.2h-8L130.26,28V43.2Z"/><path fill="url(#linear-gradient-5)" d="M172.8,43.92a13.21,13.21,0,0,1-6.15-1.38,10.6,10.6,0,0,1-4.23-3.9l-.66,4.56h-5.7V0h6.36V18.06a13.66,13.66,0,0,1,4-3.72,11.79,11.79,0,0,1,6.48-1.62,14.19,14.19,0,0,1,7.62,2,14.39,14.39,0,0,1,5.19,5.58,16.8,16.8,0,0,1,1.89,8,16.63,16.63,0,0,1-1.89,8,14.23,14.23,0,0,1-5.19,5.52A14.47,14.47,0,0,1,172.8,43.92Zm-1.08-5.52a8.85,8.85,0,0,0,6.72-2.79,10.17,10.17,0,0,0,2.64-7.29,11,11,0,0,0-1.2-5.22,8.87,8.87,0,0,0-8.16-4.86A8.71,8.71,0,0,0,165,21.06a10.27,10.27,0,0,0-2.61,7.26A10.24,10.24,0,0,0,165,35.61,8.75,8.75,0,0,0,171.72,38.4Z"/><path fill="url(#linear-gradient-6)" d="M206.34,43.92a15,15,0,0,1-9.3-2.76,10.34,10.34,0,0,1-4.2-7.32h6.42a6.35,6.35,0,0,0,2.28,3.51,7.26,7.26,0,0,0,4.74,1.47,6.13,6.13,0,0,0,4.2-1.2,3.64,3.64,0,0,0,1.32-2.76A3.06,3.06,0,0,0,210,31.77a25.63,25.63,0,0,0-5.07-1.47,38.39,38.39,0,0,1-5-1.44,11.08,11.08,0,0,1-4.14-2.55,6,6,0,0,1-1.65-4.47,8.28,8.28,0,0,1,3-6.51q3-2.61,8.4-2.61a12.79,12.79,0,0,1,8.07,2.4,9.68,9.68,0,0,1,3.63,6.78h-6.12a4.41,4.41,0,0,0-1.77-3,6.49,6.49,0,0,0-3.93-1.08,6.1,6.1,0,0,0-3.72,1,3.05,3.05,0,0,0-1.32,2.55,2.74,2.74,0,0,0,1.83,2.46A23.73,23.73,0,0,0,207,25.44,51.44,51.44,0,0,1,212.55,27a9.8,9.8,0,0,1,4.11,2.55,7,7,0,0,1,1.56,4.92,8.32,8.32,0,0,1-3.15,6.78Q211.86,43.92,206.34,43.92Z"/><path fill="url(#linear-gradient-7)" d="M224.76,28.44V23.1H236.1V12.48h5.52V23.1H253v5.34H241.62V39.12H236.1V28.44Z"/><path fill="#fff" d="M9.35,85.54a9.35,9.35,0,0,1-5-1.28,8.55,8.55,0,0,1-3.23-3.55,12.76,12.76,0,0,1,0-10.59,8.66,8.66,0,0,1,3.23-3.57,9.27,9.27,0,0,1,5-1.29,8.83,8.83,0,0,1,5.48,1.61,7.31,7.31,0,0,1,2.7,4.5H14.92a5.28,5.28,0,0,0-1.83-2.93,5.86,5.86,0,0,0-3.74-1.1,6.9,6.9,0,0,0-3.67,1,6.43,6.43,0,0,0-2.42,2.77,11.45,11.45,0,0,0,0,8.66A6.43,6.43,0,0,0,5.68,82.5a6.9,6.9,0,0,0,3.67,1,5.92,5.92,0,0,0,3.74-1.07,5.12,5.12,0,0,0,1.83-2.87h2.61a7.17,7.17,0,0,1-2.7,4.42A8.89,8.89,0,0,1,9.35,85.54Z"/><path fill="#fff" d="M20.77,85.2V65h2.36v8.65a4.91,4.91,0,0,1,2-2,5.61,5.61,0,0,1,2.8-.71,5.17,5.17,0,0,1,3.86,1.49,6.41,6.41,0,0,1,1.45,4.61V85.2H30.91V77.33q0-4.33-3.5-4.34a4.06,4.06,0,0,0-3.05,1.3A5.21,5.21,0,0,0,23.13,78v7.2Z"/><path fill="#fff" d="M41.41,85.54A6.28,6.28,0,0,1,38.53,85a4,4,0,0,1-1.71-1.57,4.14,4.14,0,0,1-.56-2.13A3.76,3.76,0,0,1,37.88,78a7.51,7.51,0,0,1,4.43-1.15h3.75v-.17a3.74,3.74,0,0,0-1-2.76A3.52,3.52,0,0,0,42.56,73a4,4,0,0,0-2.37.69,3,3,0,0,0-1.24,2H36.54a4.42,4.42,0,0,1,1-2.55,5.78,5.78,0,0,1,2.2-1.58,7.31,7.31,0,0,1,2.8-.54,5.25,5.25,0,0,1,5.85,5.68V85.2h-2.1l-.14-2.49a5.56,5.56,0,0,1-1.72,2A5.07,5.07,0,0,1,41.41,85.54Zm.36-2a3.79,3.79,0,0,0,2.31-.7A4.37,4.37,0,0,0,45.55,81a5.62,5.62,0,0,0,.51-2.35v0H42.5a4.64,4.64,0,0,0-2.92.71,2.24,2.24,0,0,0-.86,1.78,2.16,2.16,0,0,0,.8,1.75A3.43,3.43,0,0,0,41.77,83.55Z"/><path fill="#fff" d="M57,85.2a4.51,4.51,0,0,1-3-.92A4.21,4.21,0,0,1,53,80.94V73.3H50.54v-2H53l.3-3.33h2v3.33h4.09v2H55.3v7.64a2.33,2.33,0,0,0,.53,1.78,2.89,2.89,0,0,0,1.88.46h1.45v2Z"/></g></g></svg>