<svg xmlns="http://www.w3.org/2000/svg" xmlns:xlink="http://www.w3.org/1999/xlink" viewBox="0 0 89.93 84.34"><defs><linearGradient id="linear-gradient" x1="-2.22" y1="-12.66" x2="54.97" y2="86.4" gradientUnits="userSpaceOnUse"><stop offset="0" stop-color="#83bcff"/><stop offset="1" stop-color="#733fff"/></linearGradient><linearGradient id="linear-gradient-2" x1="25.77" y1="-31" x2="71.89" y2="48.87" xlink:href="#linear-gradient"/></defs><g id="Layer_2" data-name="Layer 2"><g id="Layer_3" data-name="Layer 3"><path fill="url(#linear-gradient)" d="M22.17,42V33.6H1.11v-5L21.15,0h7.32V28.08h5.88V33.6H28.47V42ZM8,28.08H22.53V7Z"/><path fill="url(#linear-gradient-2)" d="M40.41,42V0h6.36V18L63.33,0h7.86L55.65,16.74,71.55,42H63.81L51.09,21.6l-4.32,4.68V42Z"/><path fill="#fff" d="M7.08,84.34a8.49,8.49,0,0,1-3.75-.79A5.88,5.88,0,0,1,.87,81.37,6.05,6.05,0,0,1,0,78.12H2.46A4.22,4.22,0,0,0,3,80.23a3.83,3.83,0,0,0,1.55,1.54,5,5,0,0,0,2.53.58,4.54,4.54,0,0,0,3.08-.95A3,3,0,0,0,11.26,79a3.16,3.16,0,0,0-.51-1.89A3.71,3.71,0,0,0,9.39,76a11.6,11.6,0,0,0-2-.78c-.73-.22-1.5-.48-2.31-.76a8.3,8.3,0,0,1-3.36-1.94,4.31,4.31,0,0,1-1.09-3,5,5,0,0,1,.73-2.79,5.15,5.15,0,0,1,2.14-1.9,7.32,7.32,0,0,1,3.29-.69,7.22,7.22,0,0,1,3.26.7,5.29,5.29,0,0,1,2.16,1.94,5.39,5.39,0,0,1,.8,2.8H10.58a3.42,3.42,0,0,0-.42-1.61,3.26,3.26,0,0,0-1.27-1.31,4.21,4.21,0,0,0-2.14-.5,3.86,3.86,0,0,0-2.62.81,2.86,2.86,0,0,0-1,2.33,2.54,2.54,0,0,0,.71,1.93,5.39,5.39,0,0,0,2,1.1l3,1a14.67,14.67,0,0,1,2.52,1.17,4.94,4.94,0,0,1,1.75,1.74,5.26,5.26,0,0,1,.63,2.72A5.11,5.11,0,0,1,13,81.52a5.34,5.34,0,0,1-2.19,2A7.81,7.81,0,0,1,7.08,84.34Z"/><path fill="#fff" d="M22.37,84a4.49,4.49,0,0,1-3-.92,4.21,4.21,0,0,1-1.1-3.34V72.1h-2.4v-2h2.4l.31-3.33h2v3.33h4.09v2H20.63v7.64a2.29,2.29,0,0,0,.54,1.78A2.87,2.87,0,0,0,23,82H24.5v2Z"/><path fill="#fff" d="M27.72,84V70.11h2.13L30,72.77a5,5,0,0,1,2-2.18,6.1,6.1,0,0,1,3.25-.81v2.46h-.64a5.81,5.81,0,0,0-2.27.43,3.45,3.45,0,0,0-1.65,1.47A5.62,5.62,0,0,0,30.07,77v7Z"/><path fill="#fff" d="M43.59,84.34a6.83,6.83,0,0,1-3.52-.91,6.53,6.53,0,0,1-2.43-2.54,8,8,0,0,1-.88-3.83,8.07,8.07,0,0,1,.87-3.83,6.3,6.3,0,0,1,2.42-2.54,7,7,0,0,1,3.6-.91,6.46,6.46,0,0,1,3.49.91,6.08,6.08,0,0,1,2.25,2.39,6.75,6.75,0,0,1,.78,3.19c0,.21,0,.41,0,.62s0,.44,0,.7H39.09a5.37,5.37,0,0,0,.74,2.64,4.34,4.34,0,0,0,3.76,2.12A4.25,4.25,0,0,0,46,81.68a3.91,3.91,0,0,0,1.43-1.82h2.32a6.11,6.11,0,0,1-6.19,4.48Zm0-12.58a4.65,4.65,0,0,0-3,1,4.12,4.12,0,0,0-1.49,3h8.73a4,4,0,0,0-1.29-2.94A4.32,4.32,0,0,0,43.59,71.76Z"/><path fill="#fff" d="M57.9,84.34A6.31,6.31,0,0,1,55,83.75a4,4,0,0,1-1.71-1.57,4.24,4.24,0,0,1-.56-2.13,3.74,3.74,0,0,1,1.63-3.27,7.48,7.48,0,0,1,4.42-1.15h3.75v-.17a3.74,3.74,0,0,0-.95-2.76,3.52,3.52,0,0,0-2.55-.94,4.08,4.08,0,0,0-2.37.69,3,3,0,0,0-1.24,2H53a4.42,4.42,0,0,1,1-2.55,5.78,5.78,0,0,1,2.2-1.58,7.31,7.31,0,0,1,2.8-.54,5.25,5.25,0,0,1,5.85,5.68V84H62.8l-.14-2.49a5.47,5.47,0,0,1-1.72,2A5.07,5.07,0,0,1,57.9,84.34Zm.37-2a3.83,3.83,0,0,0,2.31-.7,4.53,4.53,0,0,0,1.47-1.82,5.77,5.77,0,0,0,.5-2.35v0H59a4.64,4.64,0,0,0-2.92.71,2.24,2.24,0,0,0-.86,1.78,2.16,2.16,0,0,0,.8,1.75A3.46,3.46,0,0,0,58.27,82.35Z"/><path fill="#fff" d="M68.43,84V70.11h2.13l.17,2a4.6,4.6,0,0,1,1.79-1.74A5.11,5.11,0,0,1,75,69.78a5.66,5.66,0,0,1,2.84.67,4.46,4.46,0,0,1,1.83,2,5.41,5.41,0,0,1,2-2,5.48,5.48,0,0,1,2.75-.72,5.39,5.39,0,0,1,4,1.49,6.32,6.32,0,0,1,1.48,4.61V84H87.61V76.13a5.14,5.14,0,0,0-.87-3.25,3,3,0,0,0-2.49-1.09,3.54,3.54,0,0,0-2.79,1.3,5.62,5.62,0,0,0-1.1,3.71V84H78V76.13a5.14,5.14,0,0,0-.87-3.25,3,3,0,0,0-2.49-1.09,3.48,3.48,0,0,0-2.76,1.3,5.57,5.57,0,0,0-1.11,3.71V84Z"/></g></g></svg>