<svg xmlns="http://www.w3.org/2000/svg" xmlns:xlink="http://www.w3.org/1999/xlink" viewBox="0 0 292.4 54.57" width="292.4" height="54.57"><defs><linearGradient id="linear-gradient" x1="0.01" y1="47.76" x2="69.72" y2="47.76" gradientUnits="userSpaceOnUse"><stop offset="0" stop-color="#8193b2"/><stop offset="1" stop-color="#4e4f87"/></linearGradient><linearGradient id="linear-gradient-2" x1="0.01" y1="6.81" x2="69.72" y2="6.81" gradientUnits="userSpaceOnUse"><stop offset="0" stop-color="#4e4f87"/><stop offset="1" stop-color="#8193b2"/></linearGradient><linearGradient id="linear-gradient-3" x1="0" y1="27.15" x2="69.72" y2="27.15" xlink:href="#linear-gradient-2"/></defs><g id="Layer_2" data-name="Layer 2"><g id="Layer_3" data-name="Layer 3"><path fill="url(#linear-gradient)" d="M.87,54.57s0,0,0-.06c-.43-.08-.62-.4-.78-.76a1.07,1.07,0,0,1,0-.77.44.44,0,0,1,.12-.18,1,1,0,0,1,.14-.15L11.44,41.57a1.91,1.91,0,0,1,.83-.5c.17,0,.35-.07.52-.11H68.46a1.51,1.51,0,0,1,.88.28,2.1,2.1,0,0,1,.33.41c0,.14,0,.32,0,.5a.89.89,0,0,1-.31.77L60.33,52l-2,2a1.81,1.81,0,0,1-1.12.59.11.11,0,0,0,0,.06Z"/><path fill="#4e4f87" d="M292.4,39.89s-.07,0-.07.06a.89.89,0,0,1-.91.81h-3.31a1,1,0,0,1-1-.69.9.9,0,0,1,0-.29V31.54a1.49,1.49,0,0,0-.12-.81c-.47-.49-.37-.37-1-.37H271.09a2,2,0,0,0-.84.09c-.16.15-.36.3-.37.56-.1.09-.05.21-.05.32v8a2.45,2.45,0,0,1-.09,1l-.39.39a6,6,0,0,1-1.58.09c-.54,0-1.07,0-1.61,0h-.43a1.06,1.06,0,0,1-1.11-.66V18.63a4.54,4.54,0,0,1,.3-1.55,4.24,4.24,0,0,1,.94-1.54c.11-.12.18-.28.31-.36s.23-.21.35-.29a3.61,3.61,0,0,1,1.19-.68c.29-.21.65-.18,1-.33a3.71,3.71,0,0,0,.67-.07h18.27a3.65,3.65,0,0,1,1,.18,5.18,5.18,0,0,1,.93.34A5.59,5.59,0,0,1,291,15.43a4.87,4.87,0,0,1,.83,1.22,5.54,5.54,0,0,1,.41,1.27c0,.24,0,.47.05.71,0,.05,0,.12.07.12V19l-.07.05.07.08Zm-5.28-14.11c0-1.37,0-2.73,0-4.09a4.83,4.83,0,0,0-.05-1.07,4.08,4.08,0,0,0-.2-.62,2.79,2.79,0,0,0-1.07-1.28,2.67,2.67,0,0,0-1.53-.51H272.85a2.38,2.38,0,0,0-.7.07,2.86,2.86,0,0,0-1.12.51,3.2,3.2,0,0,0-1,1.29,2.73,2.73,0,0,0-.21.91c0,1.58,0,3.16,0,4.7l.23.44a1.51,1.51,0,0,0,1,.29h15a.85.85,0,0,0,.92-.57Z"/><path fill="url(#linear-gradient-2)" d="M69.71.77c0,.17,0,.31,0,.46a.85.85,0,0,1-.3.71L67.93,3.42l-9.49,9.49a2.47,2.47,0,0,1-1,.6,2.77,2.77,0,0,1-.5.1H1.27a1.27,1.27,0,0,1-.94-.38,1.13,1.13,0,0,1-.27-.52,1.06,1.06,0,0,1,.35-1.14Q5.82,6.15,11.25.75a2.49,2.49,0,0,1,.66-.51A1.7,1.7,0,0,1,12.74,0H68.53a1.11,1.11,0,0,1,1.13.72Z"/><path fill="url(#linear-gradient-3)" d="M69.71,32.45c0,.17,0,.34,0,.5a1,1,0,0,1-.45.8,1.35,1.35,0,0,1-.72.21H12.86a1.91,1.91,0,0,1-1.39-.58L3.6,25.51c-1.11-1-2.1-2.06-3.15-3.09A1.77,1.77,0,0,1,.14,22a1,1,0,0,1-.06-.9,1.16,1.16,0,0,1,.79-.73l.15,0a1.33,1.33,0,0,1,.2,0H56.88a2.78,2.78,0,0,1,1,.32,1.93,1.93,0,0,1,.53.41L69.19,31.8A1.73,1.73,0,0,1,69.71,32.45Z"/><path fill="#4e4f87" d="M140.09,13.81h9a4.25,4.25,0,0,1,.8.07,5.79,5.79,0,0,1,.74.23,4.47,4.47,0,0,1,1.78,1.11,6.17,6.17,0,0,1,.92,1.12,7.22,7.22,0,0,1,.45,1.12,8.09,8.09,0,0,0,.19.82.67.67,0,0,1,0,.2V36.09a.6.6,0,0,1,0,.19,4.89,4.89,0,0,0-.16.74,5,5,0,0,1-.32.87,4.08,4.08,0,0,1-.44.75c-.17.22-.38.42-.56.63a4.44,4.44,0,0,1-1.45,1,5.13,5.13,0,0,1-1,.34c-.17,0-.36,0-.54.07a4.8,4.8,0,0,1-1,.06c-.34,0-.67,0-1,0H131.21a6.24,6.24,0,0,1-1.3-.15,4.39,4.39,0,0,1-1.15-.46,3.57,3.57,0,0,1-1-.71c-.15-.15-.3-.29-.45-.45a4,4,0,0,1-.93-1.58,2.37,2.37,0,0,1-.21-.91,1.07,1.07,0,0,1-.06-.61c0-5.75,0-11.49,0-17.24a4.92,4.92,0,0,1,1-2.83,3.6,3.6,0,0,1,.51-.59,5.44,5.44,0,0,1,1.44-1,4.6,4.6,0,0,1,1-.32,2.57,2.57,0,0,1,.4-.07,2.5,2.5,0,0,0,.38-.06h9.28Zm0,21.68h5.8a3.19,3.19,0,0,0,.54-.07c.06,0,.12-.05.18-.06a2.62,2.62,0,0,0,.59-.27A3,3,0,0,0,148.3,34a2.28,2.28,0,0,0,.2-.38,1.07,1.07,0,0,0,.13-.38,1.63,1.63,0,0,0,.08-.44c0-.14.06-.29.06-.44V21.72c0-.21-.11-.4-.07-.61-.13-.2-.11-.45-.25-.66s-.23-.44-.38-.65a2.76,2.76,0,0,0-.94-.79,2.82,2.82,0,0,0-1.47-.39c-3.5,0-7,0-10.51,0a4.1,4.1,0,0,0-1.21.06c-.15,0-.31.05-.46.1A3.11,3.11,0,0,0,131.91,20a3,3,0,0,0-.56,1.77q0,5.18,0,10.37a3.42,3.42,0,0,0,.05.84,4.88,4.88,0,0,0,.2.65,3,3,0,0,0,.71,1.05,2.85,2.85,0,0,0,2.08.86Z"/><path fill="#4e4f87" d="M215.81,40V31.26a.92.92,0,0,0-.2-.62,1.93,1.93,0,0,0-.36-.28h-16l-.43.37a1.73,1.73,0,0,0-.1.83v8.52c-.1.13-.18.27-.29.4a.82.82,0,0,1-.65.28h-3.34c-.38,0-.88-.31-.87-.73a.67.67,0,0,1-.06-.44V18.81a4.86,4.86,0,0,1,.27-1.55,5.12,5.12,0,0,1,.78-1.48c.2-.25.43-.47.65-.7a4.25,4.25,0,0,1,.81-.6,3.29,3.29,0,0,1,1-.43,5.84,5.84,0,0,1,.83-.18,13.24,13.24,0,0,1,1.78-.06h1.77c5,0,9.92,0,14.88,0a3.92,3.92,0,0,1,1.65.36,3.76,3.76,0,0,1,.46.2,5.54,5.54,0,0,1,1.85,1.71,6.47,6.47,0,0,1,.63,1.44c0,.26.08.52.14.78a5.2,5.2,0,0,1,0,1q0,10.18,0,20.38a1,1,0,0,1-.33.8.85.85,0,0,1-.57.22c-1.14,0-2.27,0-3.41,0a.83.83,0,0,1-.77-.48C215.91,40.2,215.86,40.13,215.81,40Zm-8.52-13.62h7.61a.9.9,0,0,0,.92-.92c0-1.46,0-2.93,0-4.4a2.29,2.29,0,0,0-.06-.51,3.32,3.32,0,0,0-.8-1.53,3.05,3.05,0,0,0-.92-.6,2.3,2.3,0,0,0-1-.25H201.52a2.63,2.63,0,0,0-.48.06,3,3,0,0,0-1,.42,2.37,2.37,0,0,0-.71.63,3.77,3.77,0,0,0-.26.39,2.94,2.94,0,0,0-.39,1.47v3.74c0,.22,0,.44,0,.66a.8.8,0,0,0,.49.75,1.37,1.37,0,0,0,.53.08Z"/><path fill="#4e4f87" d="M116.26,13.92l.37.36a1,1,0,0,1,0,.87c-.19.19-.4.42-.63.63-.4.39-.8.8-1.23,1.15s-.56.56-.86.81-.65.62-1,.91a1.42,1.42,0,0,1-.64.4l-.32,0H98.62a2.25,2.25,0,0,0-.85.2,2.47,2.47,0,0,0-1,.66,2.89,2.89,0,0,0-.66,1.26,3.74,3.74,0,0,0-.05,1.2,2.48,2.48,0,0,0,.39.94,2.44,2.44,0,0,0,.68.78,3.41,3.41,0,0,0,.83.42,2.74,2.74,0,0,0,.5.08,4.63,4.63,0,0,0,1.34.06c3.55,0,7.1,0,10.65,0a3.13,3.13,0,0,1,.68.06,2,2,0,0,1,.64.14,4.75,4.75,0,0,1,1.13.33,3.78,3.78,0,0,1,.82.36,5.73,5.73,0,0,1,1.21.79c.23.22.52.4.74.63a7.85,7.85,0,0,1,.8.93,6.07,6.07,0,0,1,.44.68c.13.24.25.48.37.72a6.77,6.77,0,0,1,.48,1.3c.08.36.13.73.2,1.09a7.79,7.79,0,0,1,0,1.74,6.19,6.19,0,0,1-.23,1.26,8.71,8.71,0,0,1-.77,1.95,4.77,4.77,0,0,1-.49.77,10.69,10.69,0,0,1-.94,1.08,9.22,9.22,0,0,1-1.37,1.05,7.33,7.33,0,0,1-1.82.84,4.43,4.43,0,0,1-.74.17,2,2,0,0,0-.49.09c-.18.07-.36,0-.52,0a2.47,2.47,0,0,1-.81.06c-.12,0-.26.05-.37-.06-.12.1-.25.06-.37.06H92.92a1,1,0,0,1-.82-.35,1,1,0,0,1-.22-.61.73.73,0,0,1,.23-.5,9.2,9.2,0,0,1,1.1-1c.18-.14.33-.31.51-.45s.46-.45.72-.63.44-.44.71-.6a5.27,5.27,0,0,0,.57-.49c.19-.17.36-.34.56-.49a1,1,0,0,1,.5-.18h13.45a2.74,2.74,0,0,0,.89-.2,2.47,2.47,0,0,0,1.2-.93,2.53,2.53,0,0,0,.47-1.07,3.55,3.55,0,0,0,.06-.64,2.79,2.79,0,0,0-.57-1.64,2.74,2.74,0,0,0-1.08-.86,2.56,2.56,0,0,0-.68-.21,9.31,9.31,0,0,0-1.75-.05H98.36a6.43,6.43,0,0,1-1.5-.24c-.32-.08-.64-.19-1-.29a7.63,7.63,0,0,1-.87-.41,7.35,7.35,0,0,1-1-.65,7.63,7.63,0,0,1-1-.83,9.34,9.34,0,0,1-1.27-1.74,7.36,7.36,0,0,1-.62-1.48,5,5,0,0,1-.19-.76c0-.1-.05-.2-.06-.31s0-.19-.07-.27,0,0,0,0c0-.41-.06-.83-.06-1.24,0-.16.07-.31.06-.47s0-.33.07-.48a2.49,2.49,0,0,1,.13-.77c.09-.32.17-.64.29-.95s.3-.61.44-.92A7.61,7.61,0,0,1,92.5,17a8.73,8.73,0,0,1,1.19-1.24,6.72,6.72,0,0,1,1.15-.83l.58-.31a8.27,8.27,0,0,1,1.46-.5c.11-.12.29,0,.39-.1s.3,0,.39-.1a1.61,1.61,0,0,0,.44,0,7.22,7.22,0,0,1,1.54-.06h15.82A1.62,1.62,0,0,1,116.26,13.92Z"/><path fill="#4e4f87" d="M256.54,40a1.65,1.65,0,0,1-.28.44,1,1,0,0,1-.69.28h-4.16l-.35-.44a5,5,0,0,1-.37-.42c-.12-.18-.3-.33-.44-.51s-.45-.46-.62-.72-.39-.4-.54-.64-.31-.33-.45-.51-.44-.46-.62-.72-.39-.4-.53-.64-.3-.32-.43-.49-.45-.5-.68-.76c-.1-.11-.18-.23-.28-.34s-.22-.18-.26-.33-.05-.05-.07-.07c-.21-.24-.43-.46-.64-.71s-.54-.64-.82-1-.51-.61-.78-.91l-.82-1c-.27-.31-.53-.63-.81-.93s-.58-.68-.87-1-.49-.57-.73-.86-.66-.74-1-1.14c-.14-.18-.32-.33-.45-.51s-.45-.46-.63-.72-.41-.38-.53-.64c0,0-.06-.07-.09-.1a8.5,8.5,0,0,1-.78-.91c-.18-.22-.38-.42-.57-.63s-.37-.43-.56-.63-.21-.18-.33-.29l-.72.07-.06.07a.84.84,0,0,0-.33.76q0,8.25,0,16.48a1.34,1.34,0,0,1-.07.53,1.07,1.07,0,0,1-.34.42.88.88,0,0,1-.53.17H230a.91.91,0,0,1-.86-.56.32.32,0,0,1-.06-.21V14.46a2.74,2.74,0,0,1,.19-.34.87.87,0,0,1,.7-.31h3.81a1,1,0,0,1,.84.45l.13.18a6.88,6.88,0,0,1,.64.77c.14.19.32.35.46.54.3.38.65.72.93,1.11.11.16.26.29.38.45.29.36.63.69.91,1.06s.55.62.79,1c.1.15.24.27.35.42s.39.41.56.64.57.64.81,1c.1.15.25.27.36.42s.37.4.53.62.36.39.51.62.27.3.4.47.35.38.51.59.6.67.85,1,.36.39.52.59c.27.37.61.7.88,1.07.13.19.3.34.44.52s.38.43.55.67a3.55,3.55,0,0,0,.4.47c.3.35.62.7.91,1.06l.73.86c.34.41.67.82,1,1.22s.57.68.84,1a2.23,2.23,0,0,0,.47.07.79.79,0,0,0,.79-.54.76.76,0,0,0,0-.26v-17a1,1,0,0,1,.36-.82.89.89,0,0,1,.55-.21h3.37a3.11,3.11,0,0,1,.44.08l.4.4a2.26,2.26,0,0,1,.09,1Z"/><path fill="#4e4f87" d="M168,36.22h17.56a1.26,1.26,0,0,1,1.15.53c0,.11.05.24.06.36a.79.79,0,0,1-.27.69c-.46.48-.93.94-1.36,1.44-.29.34-.62.65-.93,1a.76.76,0,0,0-.09.09c-.17.35-.49.4-.81.45a1,1,0,0,1-.17,0h-19.8a1.18,1.18,0,0,1-.68-.2c-.16-.11-.2-.29-.32-.45v-.4q0-12.5,0-25a1,1,0,0,1,.09-.44,1,1,0,0,1,.79-.48h3.27a.84.84,0,0,1,.87.56s0,.05.06.08V35.22A1,1,0,0,0,168,36.22Z"/></g></g></svg>