<svg xmlns="http://www.w3.org/2000/svg" viewBox="0 0 136.21 116.36" widt="136.21" height="116.36"><defs><style>.cls-1{fill:#4e4f87;}</style></defs><g id="Layer_2" data-name="Layer 2"><g id="Layer_3" data-name="Layer 3"><path id="phoenix_logo" data-name="phoenix logo" class="cls-1" d="M112.09,38.47a53.61,53.61,0,0,0,16.11-4.35,37.2,37.2,0,0,0,7.92-5.34l.09-.08s-1.92,1-4.32,1.93a26.6,26.6,0,0,1-6.67,1.28c-4.68.55-9.65,1-13.76-1.77A20.85,20.85,0,0,0,115.21,28c4.86-2.78,9.67-5.78,12.1-11.1A39.6,39.6,0,0,1,121.55,20a84.76,84.76,0,0,1-8.66,2.65,58.38,58.38,0,0,0,5.53-7.47,69.66,69.66,0,0,0,3.13-7.72c-.48,1-1.69,1.45-3.61,3.38a18.86,18.86,0,0,1-7.21,3.85,55.38,55.38,0,0,0,4.32-8.86C115.59,4,116,1.63,116.5,0c-.24.72-2.16,2.41-4.09,5.06a33.15,33.15,0,0,1-5.28,5.31V7.24a5,5,0,0,0-2.41-3.85c-2.16-1-4.8,2.41-4.8,2.41S103,6,103.28,7.24s-2.64,3.86-2.64,3.86l1,2.17s0,14.22-10.82,18.32-10.57,6-11.53,7.47c-1.54,2.31.52,5.59-.66,7.93a2.46,2.46,0,0,1-.68.89,2.77,2.77,0,0,1-3.23-.14,5.93,5.93,0,0,1-1.26-2C71.88,42.26,69,36,69,36a33.93,33.93,0,0,1,5.63-2.08c1.77-.28,1.77,2.67,1.77,2.67l.89-2.08A4.61,4.61,0,0,0,77,30.32c-.28-.89-2.37-2.08-9.18-5.05a12,12,0,0,0-7.13-1.07,5.28,5.28,0,0,0-2.86,1.34,31.51,31.51,0,0,1,4.23-.18,11.55,11.55,0,0,1,4.27,1.4H61c-3.85,0-6.53,5-6.53,5l2.37-2.08c2-1.76,4.62-1.19,6.81-1.19-1.25,0-2.71,2.06-3.27,3a9.8,9.8,0,0,0-.61,7.49s0-.06,0-.12c0-1.19,1.49-2.38,1.49-2.38l-.6,3.27a16.79,16.79,0,0,0,0,6.24c0-.89,2.07-2.67,2.07-2.67v2.08a4.26,4.26,0,0,1-.16,1l-.08.28a3.11,3.11,0,0,1-4.23,1.13A2.57,2.57,0,0,1,57.6,47c-1.18-2.34.88-5.62-.65-7.93-1-1.45-.72-3.38-11.54-7.47S34.6,13.28,34.6,13.28l1-2.17s-2.89-2.65-2.65-3.86,3.37-1.44,3.37-1.44-2.64-3.39-4.8-2.42a5,5,0,0,0-2.4,3.85v3.13a33.15,33.15,0,0,1-5.29-5.3C21.87,2.42,20,.73,19.71,0c.54,1.63.91,4,1.45,5.84a55,55,0,0,0,4.32,8.86,18.73,18.73,0,0,1-7.21-3.85c-1.92-1.93-3.12-2.41-3.61-3.38a71.59,71.59,0,0,0,3.12,7.72,59.41,59.41,0,0,0,5.54,7.47A81,81,0,0,1,14.66,20a38.23,38.23,0,0,1-5.77-3.12C11.32,22.2,16.14,25.2,21,28a21.93,21.93,0,0,0,3.76,2.16c-4.11,2.75-9.08,2.32-13.76,1.77a26.17,26.17,0,0,1-6.67-1.29C1.92,29.65,0,28.69,0,28.69l.09.09A37.2,37.2,0,0,0,8,34.12a53.69,53.69,0,0,0,16.11,4.35,21,21,0,0,0,3.52.59c-1.94,3.25-17.56,8.15-22,8.33,3.65.47,7.28,1,11,1.24a40,40,0,0,0,13-.42c7.21-1.93,4.56-1.2,4.56-1.2-.36.1-1.3,2.21-1.54,2.55a20,20,0,0,1-4.33,4.62,56.71,56.71,0,0,1-12.64,7.53.63.63,0,0,0-.33.25c.69.45,2.09.2,2.87.16a39,39,0,0,0,18.19-6.26,12.06,12.06,0,0,0,2.58-1.62l.73-.72a32.44,32.44,0,0,0-2.6,6.81,44.36,44.36,0,0,0-.84,13.4c0,1.09.05,2.19.06,3.28,0,.3.06.6.06.9a30.39,30.39,0,0,0,2.1-4.24c.69-1.41,1.4-2.82,2.13-4.21a29.92,29.92,0,0,1,3.65-6.07c2.16-2.41,3.61-4.1,3.61-4.1a110.61,110.61,0,0,0,1.68,18.8L51,82.67A46.19,46.19,0,0,1,52.37,69.9a28.73,28.73,0,0,1,3.39-6.5q1,2.61,1.85,5.29a15.81,15.81,0,0,1-.12,8.94,26.19,26.19,0,0,1-1.73,5.54c-1,1.93,3.36-2.65,4.08-3.86s3.85-7.23,3.61-9.88,1.68-.24,2.16,1.69a13,13,0,0,1-1.2,10.36A105.89,105.89,0,0,1,52.87,96.19l6.49-4.34-4.08,11.81L62.72,95l-3.61,13.74s5.71-9.42,6-10.61c.21-.83,2.38,14.14,3,18.25.59-4.11,2.77-19.08,3-18.25.29,1.19,6,10.61,6,10.61L73.5,95,81,103.66,76.86,91.85l6.49,4.33A105.71,105.71,0,0,1,71.8,81.48a12.93,12.93,0,0,1-1.2-10.36c.48-1.93,2.4-4.34,2.16-1.69s2.88,8.67,3.6,9.88,5,5.78,4.09,3.85a26.1,26.1,0,0,1-1.73-5.53,15.73,15.73,0,0,1-.11-8.94c.54-1.79,1.17-3.55,1.85-5.29a29.14,29.14,0,0,1,3.39,6.5,46.33,46.33,0,0,1,1.41,12.79l1.45-4.58a111.83,111.83,0,0,0,1.68-18.8S89.83,61,92,63.4a29.43,29.43,0,0,1,3.64,6.07c.74,1.39,1.45,2.81,2.14,4.22a30.27,30.27,0,0,0,2.1,4.23c0-.3,0-.6,0-.9q0-1.63.06-3.27a44.08,44.08,0,0,0-.83-13.41,32.44,32.44,0,0,0-2.6-6.81l.72.72a12.16,12.16,0,0,0,2.58,1.62,39.14,39.14,0,0,0,18.2,6.26c.78,0,2.18.28,2.87-.17a.52.52,0,0,0-.33-.25A56.42,56.42,0,0,1,108,54.18a20.05,20.05,0,0,1-4.34-4.62c-.23-.34-1.17-2.45-1.54-2.55,0,0-2.64-.73,4.57,1.2a40,40,0,0,0,13,.42c3.67-.29,7.3-.77,10.95-1.24-4.46-.18-20.08-5.08-22-8.33A20.87,20.87,0,0,0,112.09,38.47Z"/></g></g></svg>