<svg xmlns="http://www.w3.org/2000/svg" viewBox="0 0 36 35.25"><g id="Layer_2" data-name="Layer 2"><g id="Layer_3" data-name="Layer 3"><path d="M18,0a18.08,18.08,0,0,0-5.69,35.22c.9.17,1.23-.39,1.23-.87s0-1.57,0-3.08c-5,1.1-6.07-2.42-6.07-2.42a4.7,4.7,0,0,0-2-2.64c-1.63-1.12.13-1.1.13-1.1A3.78,3.78,0,0,1,8.33,27a3.82,3.82,0,0,0,5.24,1.5,3.87,3.87,0,0,1,1.14-2.41c-4-.46-8.19-2-8.19-8.93a7,7,0,0,1,1.85-4.85,6.52,6.52,0,0,1,.18-4.79S10.06,7,13.5,9.35a16.94,16.94,0,0,1,9,0C25.94,7,27.45,7.5,27.45,7.5a6.44,6.44,0,0,1,.18,4.78,7,7,0,0,1,1.85,4.85c0,6.94-4.2,8.47-8.21,8.92a4.32,4.32,0,0,1,1.22,3.34c0,2.42,0,4.37,0,5s.32,1,1.23.87A18.09,18.09,0,0,0,18,0Z" /></g></g></svg>